<?xml version="1.0" encoding="UTF-8"?>
<svg width="512" height="128" viewBox="0 0 512 128" xmlns="http://www.w3.org/2000/svg">
    <g transform="translate(20, 15) scale(0.6)">
        <!-- Icon -->
        <g>
            <path d="M35.0534362,142.317005 L31.2699893,141.024486 C31.2699893,141.024486 31.7319117,121.737713 24.8108459,120.353673 C20.1968021,115.001416 25.5490584,-106.659184 42.1592709,119.61546 C42.1592709,119.61546 36.43834,122.475926 35.4229741,127.367123 C34.3152237,132.165936 35.0534362,142.317005 35.0534362,142.317005 L35.0534362,142.317005 L35.0534362,142.317005 Z" fill="#A6A385"/>
            <path d="M37.0841679,123.676061 C37.0841679,123.676061 70.2130718,101.897497 62.461409,56.5867926 C54.9868998,23.6426576 37.360458,12.8457605 35.422974,8.69277572 C33.3007211,5.7399258 31.2699892,0.572438448 31.2699892,0.572438448 L32.6548931,92.2074874 C32.6548931,92.2998718 29.7935642,120.261288 37.0841679,123.676061" fill="#499D4A"/>
            <path d="M29.332506,124.875332 C29.332506,124.875332 -1.76652951,103.650212 0.0794333896,66.2768026 C1.8321484,28.9025296 23.7954806,10.5387386 28.0399866,7.21635076 C30.8089308,4.26350084 30.9013154,3.15575042 31.0860844,0.202900506 C33.0235682,4.35588532 32.6548938,62.3085868 32.9311838,69.1372682 C33.7617808,95.4374908 31.4547588,119.892614 29.332506,124.875332 L29.332506,124.875332 L29.332506,124.875332 Z" fill="#58AA50"/>
        </g>
        <!-- Text -->
        <g transform="translate(100, 0)">
            <path d="M457.888592,55.387521 C458.810712,55.387521 461.579656,55.663811 468.68549,55.663811 C475.421786,55.663811 480.774044,55.4799054 487.326434,55.4799054 C495.354388,55.4799054 506.428438,58.3403708 506.428438,70.3365394 C506.428438,76.2431028 502.275454,80.949531 496.830812,83.256553 C496.554522,83.3489374 496.554522,83.532843 496.830812,83.6252274 C504.582474,85.5635748 511.41202,90.3623876 511.41202,99.4057064 C511.41202,108.26512 505.874994,113.893666 497.846178,117.400823 C492.95498,119.523076 486.864512,120.261288 480.681658,120.261288 C475.97523,120.261288 463.333234,119.707845 456.319784,119.892614 C455.581572,119.61546 456.965612,116.293072 457.61144,115.739629 C459.272634,115.647244 460.56429,115.55486 462.317868,115.001416 C464.809658,114.355588 465.085948,113.617376 465.455486,109.833929 C465.640256,106.603926 465.640256,95.1603372 465.640256,87.0399998 C465.640256,75.8735648 465.73264,68.306671 465.640256,64.6156086 C465.547872,61.7551432 464.532506,60.8321618 462.502636,60.2778548 C460.933828,60.0015648 458.349652,59.6320268 456.2274,59.3557368 C455.765476,58.8938144 457.334286,55.7561954 457.888592,55.387521 L457.888592,55.387521 L457.888592,55.387521 Z M404.641456,112.786779 C406.856958,114.539494 411.193848,115.277706 415.069678,115.277706 C420.05326,115.277706 425.03598,114.355588 429.834792,110.017835 C434.72599,105.58856 438.139898,98.7598784 438.139898,87.8705968 C438.139898,77.4423742 434.171682,68.952499 426.051346,63.9697806 C421.437302,61.1084518 415.530738,59.9091802 408.702056,59.9091802 C406.672188,59.9091802 404.73384,60.0015648 403.53457,60.5550082 C403.257416,60.7397772 402.611588,61.5703742 402.611588,62.0314332 C402.426818,63.8773962 402.426818,78.0882022 402.426818,86.3941718 C402.426818,94.9764316 402.426818,106.9726 402.611588,108.356641 C402.611588,109.741545 403.257416,111.863797 404.641456,112.786779 L404.641456,112.786779 L404.641456,112.786779 Z M383.69349,55.387521 C385.447068,55.387521 392.183366,55.663811 395.413368,55.663811 C401.227548,55.663811 405.379668,55.387521 416.361334,55.387521 C425.589422,55.387521 433.341086,57.8793118 438.87811,62.5848768 C445.614408,68.3990554 449.121564,76.4278716 449.121564,86.2094028 C449.121564,100.143919 442.753942,108.172735 436.38632,112.786779 C430.01956,117.493207 421.713592,120.261288 409.902192,120.261288 C403.626954,120.261288 392.830056,120.076519 383.87826,119.984135 L383.785874,119.984135 C383.324816,119.154401 384.524088,115.924398 385.2623,115.832013 C387.661706,115.55486 388.307534,115.462475 389.507668,115.001416 C391.445152,114.263204 391.81469,113.247838 392.091844,109.833929 C392.368134,103.466307 392.27575,95.8070286 392.27575,87.1323844 C392.27575,80.949531 392.368134,68.8601146 392.183366,64.9842832 C391.907076,61.7551432 390.523034,60.9245462 387.75409,60.3702392 C386.37005,60.0939492 384.524088,59.7244114 381.940776,59.4481212 C381.571238,58.8014298 383.232432,55.9409644 383.69349,55.387521 L383.69349,55.387521 L383.69349,55.387521 Z" fill="#442D22"/>
        </g>
    </g>
</svg> 