<?xml version="1.0" encoding="UTF-8"?>
<svg width="512" height="128" viewBox="0 0 512 128" fill="none" xmlns="http://www.w3.org/2000/svg">
    <g transform="translate(20, 15) scale(0.8)">
        <path d="M256 32c-123.7 0-224 100.3-224 224s100.3 224 224 224 224-100.3 224-224S379.7 32 256 32zm0 416c-105.9 0-192-86.1-192-192S150.1 64 256 64s192 86.1 192 192-86.1 192-192 192z" fill="#4DB33D"/>
        <path d="M256 128c-70.7 0-128 57.3-128 128s57.3 128 128 128 128-57.3 128-128-57.3-128-128-128zm0 224c-52.9 0-96-43.1-96-96s43.1-96 96-96 96 43.1 96 96-43.1 96-96 96z" fill="#4DB33D"/>
        <path d="M256 192c-35.3 0-64 28.7-64 64s28.7 64 64 64 64-28.7 64-64-28.7-64-64-64z" fill="#4DB33D"/>
    </g>
    <!-- Text -->
    <text x="180" y="80" font-family="-apple-system,BlinkMacSystemFont,'Segoe UI',Roboto,Helvetica,Arial,sans-serif" font-size="48" font-weight="400" fill="#4DB33D">Mongo Express</text>
</svg> 