<svg version="1.1" id="Layer_1" xmlns="http://www.w3.org/2000/svg"
    xmlns:xlink="http://www.w3.org/1999/xlink" x="0px" y="0px"
    width="100%" viewBox="0 0 233 233" enable-background="new 0 0 233 233" xml:space="preserve">
<path fill="#5F8A98" opacity="1.000000" stroke="none" 
	d="
M131.003647,128.533142 
	C121.509956,135.300140 111.676270,136.039154 101.408417,130.312576 
	C100.749809,129.945251 99.701355,130.276917 98.489273,130.641922 
	C98.144279,131.000427 97.935516,130.950134 97.958221,130.539825 
	C97.983582,128.757309 97.986221,127.385094 98.005898,125.657074 
	C98.069435,124.828255 98.115929,124.355240 98.526344,123.905106 
	C100.193878,122.620499 102.485199,121.414848 102.632301,119.988121 
	C103.315651,113.360306 103.404968,106.671242 103.774406,99.666061 
	C103.844276,98.869781 103.846642,98.411560 104.156059,97.755432 
	C104.778343,95.596863 105.146896,93.642876 105.393242,91.673599 
	C105.622734,89.838989 105.722183,87.988121 106.044426,86.419952 
	C107.123154,87.463936 108.036324,88.232368 109.089294,89.205887 
	C109.148743,90.945496 109.068390,92.480011 108.688049,94.254166 
	C106.534340,99.427620 105.557961,104.335281 108.833847,109.312332 
	C108.843903,109.508125 108.928627,109.890968 108.898087,110.144714 
	C108.847298,110.567642 108.827049,110.736816 108.516762,111.127182 
	C107.825455,113.229546 107.424187,115.110710 107.009689,117.437424 
	C107.226639,121.553909 105.500771,126.628777 110.015732,127.987488 
	C114.182526,129.241409 119.218895,128.979523 123.537170,127.962486 
	C127.697639,126.982613 126.966949,122.493484 127.222099,118.746185 
	C127.277718,114.961838 127.160149,111.471794 127.311508,108.123123 
	C128.089508,108.884613 128.598587,109.504723 129.091248,110.440369 
	C129.395386,111.484009 129.715942,112.212097 130.038513,113.344345 
	C130.068848,114.825699 130.097153,115.902885 130.094284,117.353745 
	C130.701218,119.453781 131.339340,121.180145 131.973434,123.269257 
	C132.001678,124.115227 132.033951,124.598442 132.055603,125.423500 
	C131.998230,126.447243 131.951462,127.129143 131.904694,127.811043 
	C131.904694,127.811043 131.892899,127.940018 131.675262,127.996040 
	C131.258728,128.167542 131.107407,128.327896 131.003647,128.533142 
z"/>
<path fill="#121317" opacity="1.000000" stroke="none" 
	d="
M56.969391,121.482399 
	C56.864006,121.277008 56.828857,121.060226 57.346260,120.749588 
	C58.201515,118.779930 58.574455,116.892754 59.407139,115.003860 
	C63.044514,115.002159 66.222145,115.002159 68.413002,115.002159 
	C67.795403,117.776649 66.405884,120.950027 67.086273,121.483498 
	C70.363220,124.052872 74.198303,125.910416 77.991478,128.090668 
	C78.147636,128.160751 78.485146,128.214111 78.517593,128.648590 
	C78.356895,133.035934 78.163750,136.988831 77.577499,140.964630 
	C73.521545,139.988785 69.855927,139.000046 66.196411,137.989212 
	C57.349880,135.545639 59.178986,136.971985 58.753166,128.168549 
	C58.644226,125.916344 57.589558,123.709877 56.969391,121.482399 
z"/>
<path fill="#959595" opacity="1.000000" stroke="none" 
	d="
M135.168320,144.963028 
	C135.147430,140.950272 135.126541,136.937515 135.564606,132.483032 
	C138.950790,131.725098 141.950348,131.702438 144.783493,131.004364 
	C147.269379,130.391861 149.568649,129.021942 151.969391,128.370026 
	C151.992325,129.522415 151.996216,130.291351 151.834137,131.439117 
	C151.322540,137.614548 150.976898,143.411133 150.630936,149.213348 
	C145.209183,147.723038 140.188751,146.343033 135.168320,144.963028 
z"/>
<path fill="#959595" opacity="1.000000" stroke="none" 
	d="
M97.935516,130.950134 
	C97.935516,130.950134 98.144279,131.000427 98.249832,130.980621 
	C98.510582,134.651367 98.665794,138.341934 98.478256,142.517776 
	C97.753319,143.332489 97.371124,143.661911 96.603600,144.003860 
	C93.926392,144.779358 91.678986,145.754959 89.330269,146.246033 
	C86.940666,146.745651 84.451286,146.768021 82.008194,146.579178 
	C82.338631,142.743423 82.666466,139.327896 82.975639,135.503326 
	C82.964325,133.457138 82.971664,131.819962 82.985138,129.818848 
	C82.997070,128.971710 83.002853,128.488480 83.376923,128.051804 
	C88.526184,128.795837 92.445251,133.782043 97.935516,130.950134 
z"/>
<path fill="#353639" opacity="1.000000" stroke="none" 
	d="
M59.099560,58.937405 
	C59.047131,53.672062 58.994705,48.406723 59.304047,42.652367 
	C60.749676,42.062321 61.833530,41.961292 62.977608,42.220657 
	C65.800919,46.597980 68.564011,50.614910 71.327103,54.631840 
	C71.633598,54.424809 71.940094,54.217781 72.246582,54.010750 
	C72.050758,55.236256 71.854935,56.461758 71.599327,58.061394 
	C74.110497,58.406033 76.187706,58.691113 78.409180,59.310219 
	C78.457451,60.109459 78.361450,60.574665 78.066650,61.126598 
	C78.004768,61.796669 78.141678,62.380020 78.399719,63.292816 
	C78.440659,63.842098 78.360474,64.061935 78.220276,64.527954 
	C77.797020,65.533012 77.433784,66.291893 76.839821,67.223785 
	C73.411522,65.910446 70.213943,64.424088 66.796448,62.681198 
	C64.084198,61.262249 61.591881,60.099827 59.099560,58.937405 
z"/>
<path fill="#8E8E8E" opacity="1.000000" stroke="none" 
	d="
M56.639702,121.804459 
	C57.589558,123.709877 58.644226,125.916344 58.753166,128.168549 
	C59.178986,136.971985 57.349880,135.545639 66.196411,137.989212 
	C69.855927,139.000046 73.521545,139.988785 77.584061,141.405884 
	C77.990395,143.880875 77.997047,145.937546 77.999741,148.340912 
	C77.985336,149.150467 77.974907,149.613312 77.583618,150.049438 
	C73.068985,148.611069 68.978294,147.045303 64.778038,145.871613 
	C63.312466,145.462097 61.576584,146.019928 59.964149,146.135971 
	C58.644653,143.848160 56.392448,141.638870 56.191975,139.256866 
	C55.715054,133.590210 56.208569,127.841866 56.639702,121.804459 
z"/>
<path fill="#7C7C7B" opacity="1.000000" stroke="none" 
	d="
M135.095123,145.334625 
	C140.188751,146.343033 145.209183,147.723038 150.630936,149.213348 
	C150.976898,143.411133 151.322540,137.614548 152.131805,131.723572 
	C152.712891,134.088623 152.775314,136.552261 152.960236,139.006638 
	C153.263138,143.026627 153.645691,147.040604 154.219940,151.285187 
	C155.809814,151.090607 157.167664,150.644562 158.540131,150.249344 
	C164.663055,148.486099 170.790161,146.737350 176.915756,144.983353 
	C173.864395,150.163193 168.017609,149.837540 163.394730,151.978195 
	C154.785339,155.964828 146.664062,154.390366 138.761566,150.366394 
	C137.143555,149.542496 136.249619,147.296631 135.095123,145.334625 
z"/>
<path fill="#BABABA" opacity="1.000000" stroke="none" 
	d="
M133.904297,52.178528 
	C133.625107,49.702271 133.345932,47.226013 133.486847,44.425194 
	C139.588821,47.727684 145.270691,51.354740 150.970764,55.432987 
	C150.974640,58.580391 150.960312,61.276608 150.578796,63.972725 
	C149.166122,63.539433 148.095184,63.158554 147.079605,62.663982 
	C142.653168,60.508423 138.242844,58.319801 133.605606,56.044010 
	C133.157410,55.713150 132.966217,55.454861 132.883072,54.887642 
	C133.005524,54.417698 133.055878,54.230076 133.313629,53.872482 
	C133.648788,53.194515 133.776535,52.686523 133.904297,52.178528 
z"/>
<path fill="#919191" opacity="1.000000" stroke="none" 
	d="
M176.963837,144.605896 
	C170.790161,146.737350 164.663055,148.486099 158.540131,150.249344 
	C157.167664,150.644562 155.809814,151.090607 154.389740,150.930206 
	C154.875763,147.699402 155.417313,145.051636 156.279480,142.235397 
	C161.853592,140.429214 167.107071,138.791534 172.678223,137.205170 
	C173.629700,137.153351 174.263550,137.050217 175.190430,136.957031 
	C175.871841,136.946106 176.260239,136.925232 176.749619,137.232910 
	C177.191513,138.351257 177.532410,139.141022 177.873322,139.930801 
	C177.586197,141.363358 177.299072,142.795898 176.963837,144.605896 
z"/>
<path fill="#353639" opacity="1.000000" stroke="none" 
	d="
M171.922684,41.079063 
	C177.485458,42.268337 175.788193,46.649544 175.552246,50.712898 
	C172.786758,53.005234 170.409546,54.802242 168.085556,56.559025 
	C168.714584,58.002518 169.353302,59.468250 169.872253,61.213970 
	C169.152100,62.310143 168.551697,63.126335 167.598541,63.998840 
	C164.828415,65.347511 162.411041,66.639870 159.707962,67.976074 
	C158.972504,68.340164 158.522736,68.660416 158.039230,69.216171 
	C158.005478,69.451675 157.965561,69.925812 157.688766,69.933014 
	C156.860474,69.984146 156.308960,70.028076 155.603180,69.677887 
	C155.557251,68.179085 155.665619,67.074387 156.085876,65.947456 
	C157.768860,64.368164 159.139984,62.811100 160.894577,60.818558 
	C161.702240,60.631004 163.395477,60.237804 165.635071,59.717731 
	C161.813370,56.238522 163.478439,54.845615 166.586609,52.351028 
	C169.251541,50.212196 170.216156,45.954838 171.884201,42.376755 
	C171.864670,41.772434 171.893677,41.425747 171.922684,41.079063 
z"/>
<path fill="#C2C2C2" opacity="1.000000" stroke="none" 
	d="
M150.952576,54.981796 
	C145.270691,51.354740 139.588821,47.727684 133.576569,44.045399 
	C133.928818,42.051052 134.611450,40.111931 135.814285,38.301140 
	C138.554810,38.738789 140.775131,39.048103 142.502289,39.288719 
	C145.445251,41.271011 148.197128,43.124592 150.975433,45.433784 
	C150.985443,48.920200 150.969009,51.951000 150.952576,54.981796 
z"/>
<path fill="#BABABA" opacity="1.000000" stroke="none" 
	d="
M99.832176,42.992455 
	C99.897156,44.688591 99.962128,46.384727 99.894234,48.809013 
	C99.275757,50.776516 98.790138,52.015873 98.279373,53.536934 
	C98.249832,54.196323 98.245438,54.574005 97.903419,55.084110 
	C92.989006,57.714729 88.412209,60.212925 83.013298,63.159859 
	C83.013298,59.190948 83.013298,56.089882 83.382568,52.984509 
	C89.111961,49.650955 94.472069,46.321705 99.832176,42.992455 
z"/>
<path fill="#C2C2C2" opacity="1.000000" stroke="none" 
	d="
M99.904068,42.614769 
	C94.472069,46.321705 89.111961,49.650955 83.379288,52.535381 
	C83.015816,49.385868 83.024918,46.681175 83.385056,43.937096 
	C84.908318,43.317715 86.671532,43.042812 87.154617,42.107056 
	C89.824417,36.935497 94.367180,37.676834 98.842476,37.988567 
	C99.220306,39.404739 99.598129,40.820911 99.904068,42.614769 
z"/>
<path fill="#7C7C7B" opacity="1.000000" stroke="none" 
	d="
M175.972931,66.051765 
	C176.319977,71.408577 176.695297,76.763748 177.005859,82.122673 
	C177.297684,87.158043 177.521133,92.197388 177.488068,97.889458 
	C177.085999,105.679459 177.038879,112.817215 176.805038,119.948853 
	C176.749542,121.641418 176.068253,123.313461 175.481552,124.891472 
	C175.170486,124.520020 175.043655,124.256363 174.974442,123.556793 
	C175.011307,120.743515 174.981537,118.370491 175.028564,115.574165 
	C175.062790,113.434273 175.020218,111.717667 175.052795,109.542702 
	C175.047729,105.058067 174.967499,101.031792 174.955688,96.541092 
	C174.949463,90.055847 174.874802,84.035034 174.862167,77.559616 
	C175.273773,73.420593 175.623352,69.736176 175.972931,66.051765 
z"/>
<path fill="#FAFAFA" opacity="1.000000" stroke="none" 
	d="
M78.265450,61.039875 
	C78.361450,60.574665 78.457451,60.109459 78.528214,58.908234 
	C78.388527,55.766262 78.274063,53.360313 78.264404,50.706413 
	C78.302826,50.291744 78.236450,50.125015 78.312119,49.551323 
	C78.361488,47.435722 78.268814,45.727081 78.293144,43.581505 
	C78.422028,40.441780 78.433922,37.738983 78.623352,34.812649 
	C78.213120,33.726002 77.625359,32.862900 77.037590,31.999794 
	C78.870918,29.551918 80.854057,27.675236 83.754326,30.583641 
	C82.994247,31.209276 82.465508,31.428827 81.638733,31.987827 
	C81.232445,33.962097 81.041336,35.596302 81.029167,37.231838 
	C80.938179,49.458988 80.882584,61.686401 80.595879,73.933975 
	C80.375862,73.954208 79.950325,74.073318 79.682800,73.929367 
	C79.161919,73.469727 78.908554,73.154045 78.658981,72.420517 
	C78.488953,70.352798 78.315147,68.702934 78.317261,66.735443 
	C78.422211,65.705811 78.351242,64.993797 78.280289,64.281776 
	C78.360474,64.061935 78.440659,63.842098 78.513596,62.978302 
	C78.426048,61.902855 78.345749,61.471367 78.265450,61.039875 
z"/>
<path fill="#389EE2" opacity="1.000000" stroke="none" 
	d="
M133.106232,54.042450 
	C133.055878,54.230076 133.005524,54.417698 132.642395,54.993973 
	C131.859802,55.616611 131.389999,55.850601 130.763596,55.746586 
	C127.317688,53.962437 123.926857,50.974770 120.813217,56.034477 
	C120.392143,56.044811 120.223991,56.057575 120.041489,55.662720 
	C118.711952,52.574875 117.560722,49.782970 115.896713,47.340397 
	C115.659683,46.992466 112.935951,48.338604 110.968170,48.911800 
	C109.013710,48.243996 107.454216,47.565075 105.894722,46.886154 
	C115.193840,42.807751 123.377861,45.972935 131.651672,51.287464 
	C132.366730,52.532055 132.736481,53.287254 133.106232,54.042450 
M121.743179,51.094646 
	C121.832436,51.065922 121.921692,51.037197 122.262253,50.910877 
	C122.172211,50.937195 122.082176,50.963512 121.743179,51.094646 
z"/>
<path fill="#CFCFCF" opacity="1.000000" stroke="none" 
	d="
M150.948990,44.978165 
	C148.197128,43.124592 145.445251,41.271011 142.502289,39.288719 
	C140.775131,39.048103 138.554810,38.738789 136.138901,38.156559 
	C140.687439,35.915974 145.431549,33.948303 150.605591,32.483963 
	C151.041809,35.667770 151.048096,38.348240 151.038239,41.423134 
	C150.997726,42.871094 150.973358,43.924629 150.948990,44.978165 
z"/>
<path fill="#CFCFCF" opacity="1.000000" stroke="none" 
	d="
M81.936760,31.648376 
	C82.465508,31.428827 82.994247,31.209276 83.818100,30.980722 
	C89.002747,33.073158 93.892288,35.174599 98.812149,37.632301 
	C94.367180,37.676834 89.824417,36.935497 87.154617,42.107056 
	C86.671532,43.042812 84.908318,43.317715 83.377365,43.484821 
	C82.658012,39.264080 82.297386,35.456230 81.936760,31.648376 
z"/>
<path fill="#1F1F21" opacity="1.000000" stroke="none" 
	d="
M59.061077,59.402420 
	C61.591881,60.099827 64.084198,61.262249 66.719528,63.047279 
	C66.006104,66.401451 64.625114,69.095039 64.423889,71.874039 
	C64.163086,75.475891 62.336613,76.689445 59.178062,76.595413 
	C59.079742,74.442932 59.040405,72.717484 59.001068,70.992027 
	C59.008240,67.283829 59.015419,63.575634 59.061077,59.402420 
z"/>
<path fill="#1F1F21" opacity="1.000000" stroke="none" 
	d="
M175.982025,65.606003 
	C175.623352,69.736176 175.273773,73.420593 174.524384,77.498756 
	C170.844116,76.011406 167.906387,74.210396 169.731674,69.374809 
	C170.255936,67.985962 168.604919,65.776001 167.951263,63.942528 
	C168.551697,63.126335 169.152100,62.310143 170.222321,61.183239 
	C172.436920,60.222240 174.181717,59.571957 175.926514,58.921673 
	C175.948059,61.001194 175.969604,63.080723 175.982025,65.606003 
z"/>
<path fill="#FAFAFA" opacity="1.000000" stroke="none" 
	d="
M155.774002,65.969688 
	C155.665619,67.074387 155.557251,68.179085 155.478302,70.083153 
	C155.300919,72.560867 155.094131,74.239212 154.468597,75.915436 
	C153.548553,72.297707 153.047256,68.682091 152.655823,64.606293 
	C152.743576,56.448418 152.721481,48.750729 152.787689,40.611313 
	C152.934341,37.487087 152.992691,34.804585 153.051025,32.122078 
	C153.466583,32.088940 153.882126,32.055805 154.679565,32.485645 
	C155.196884,34.053230 155.332306,35.157841 155.466736,36.663239 
	C155.593597,41.025772 155.721436,44.987514 155.701477,49.302025 
	C155.531677,52.013359 155.509705,54.371922 155.359879,57.117287 
	C155.315750,57.762455 155.399445,58.020824 155.475388,58.521240 
	C155.462662,59.086254 155.468002,59.409054 155.357834,60.118774 
	C155.315826,60.763939 155.399628,61.022018 155.474579,61.674759 
	C155.568481,63.369511 155.671234,64.669601 155.774002,65.969688 
z"/>
<path fill="#8E8E8E" opacity="1.000000" stroke="none" 
	d="
M151.950348,127.986565 
	C149.568649,129.021942 147.269379,130.391861 144.783493,131.004364 
	C141.950348,131.702438 138.950790,131.725098 135.649170,132.028778 
	C135.228851,130.960876 135.182953,129.905457 135.387451,128.451569 
	C135.637863,128.053070 136.032257,128.012894 136.460312,128.007996 
	C141.610275,126.992256 146.332169,125.981392 151.270233,124.968292 
	C151.486389,124.966049 151.917770,124.937660 151.945587,125.318253 
	C151.965729,126.461426 151.958038,127.223991 151.950348,127.986565 
z"/>
<path fill="#707070" opacity="1.000000" stroke="none" 
	d="
M76.663803,32.038910 
	C77.625359,32.862900 78.213120,33.726002 78.229858,34.780792 
	C75.451469,36.006721 73.244110,37.040966 70.694389,38.143410 
	C67.873817,39.427830 65.395599,40.644043 62.917385,41.860260 
	C61.833530,41.961292 60.749676,42.062321 59.258942,42.202171 
	C59.295033,41.133423 59.440094,39.391331 60.229141,39.020878 
	C65.506111,36.543331 70.920334,34.358120 76.663803,32.038910 
z"/>
<path fill="#707070" opacity="1.000000" stroke="none" 
	d="
M60.108814,146.452286 
	C61.576584,146.019928 63.312466,145.462097 64.778038,145.871613 
	C68.978294,147.045303 73.068985,148.611069 77.774055,150.287201 
	C79.229279,151.369492 80.113197,152.187256 81.001907,153.208313 
	C81.006706,153.411591 81.018349,153.818085 81.018349,153.818085 
	C74.096725,151.468262 67.175102,149.118423 60.108814,146.452286 
z"/>
<path fill="#8E8E8E" opacity="1.000000" stroke="none" 
	d="
M58.947392,115.005569 
	C58.574455,116.892754 58.201515,118.779930 57.398701,120.591217 
	C56.656506,114.859673 56.237747,109.206917 56.084126,103.546959 
	C56.022457,101.274948 56.543365,98.987122 57.229218,96.384476 
	C57.659317,96.062462 58.141727,96.088081 58.141727,96.088081 
	C58.141727,96.088081 58.624386,96.067688 58.677776,96.456635 
	C58.798069,99.895714 58.864971,102.945839 58.849014,106.376251 
	C58.826569,109.506218 58.886978,112.255898 58.947392,115.005569 
z"/>
<path fill="#CFCFCF" opacity="1.000000" stroke="none" 
	d="
M175.674820,124.994942 
	C176.068253,123.313461 176.749542,121.641418 176.805038,119.948853 
	C177.038879,112.817215 177.085999,105.679459 177.554352,98.310043 
	C177.941742,111.721207 177.976227,125.366264 177.942017,139.471069 
	C177.532410,139.141022 177.191513,138.351257 176.770706,136.929031 
	C176.327148,135.867950 175.963486,135.439331 175.580536,134.556366 
	C175.599091,131.066330 175.636948,128.030640 175.674820,124.994942 
z"/>
<path fill="#4F4F50" opacity="1.000000" stroke="none" 
	d="
M175.947266,58.487190 
	C174.181717,59.571957 172.436920,60.222240 170.342072,60.903255 
	C169.353302,59.468250 168.714584,58.002518 168.085556,56.559025 
	C170.409546,54.802242 172.786758,53.005234 175.485855,51.149063 
	C175.861176,53.410835 175.914597,55.731770 175.947266,58.487190 
z"/>
<path fill="#87C1D3" opacity="1.000000" stroke="none" 
	d="
M105.540581,46.933983 
	C107.454216,47.565075 109.013710,48.243996 110.902374,49.290737 
	C111.129997,50.408611 111.028442,51.158661 110.959778,51.953331 
	C110.992668,51.997952 110.904152,51.929413 110.568207,51.909203 
	C109.512932,52.319370 108.793617,52.749744 107.673874,53.184708 
	C106.482918,53.322193 105.692390,53.455093 104.883591,53.215977 
	C102.415428,48.786163 100.515724,53.505371 98.304520,53.255226 
	C98.790138,52.015873 99.275757,50.776516 99.931915,49.232132 
	C101.797127,48.278671 103.491783,47.630238 105.540581,46.933983 
z"/>
<path fill="#7C7C7B" opacity="1.000000" stroke="none" 
	d="
M81.411453,153.888443 
	C81.018349,153.818085 81.006706,153.411591 81.259659,153.201874 
	C81.709389,152.351105 81.906158,151.710052 82.478180,151.040863 
	C87.566788,149.672256 92.280136,148.331787 97.138840,147.141327 
	C97.284210,147.291321 97.601463,147.563126 97.601463,147.563126 
	C92.335831,149.695023 87.070198,151.826904 81.411453,153.888443 
z"/>
<path fill="#707070" opacity="1.000000" stroke="none" 
	d="
M58.624386,96.067688 
	C58.624386,96.067688 58.141727,96.088081 58.141727,96.088081 
	C58.141727,96.088081 57.659317,96.062462 57.417923,96.056244 
	C57.531311,87.837654 57.886097,79.625298 58.620975,71.202484 
	C59.040405,72.717484 59.079742,74.442932 59.125858,77.043190 
	C59.392456,81.294579 59.652283,84.671165 60.043392,88.349190 
	C59.657909,91.122978 59.141148,93.595337 58.624386,96.067688 
z"/>
<path fill="#707070" opacity="1.000000" stroke="none" 
	d="
M171.772278,40.828148 
	C171.893677,41.425747 171.864670,41.772434 171.548767,42.373314 
	C169.529999,42.022758 167.798141,41.418003 165.838470,40.565155 
	C163.404129,38.941612 161.197617,37.566158 159.039520,35.952442 
	C159.220642,35.393230 159.452011,35.178642 159.782028,35.070412 
	C160.627396,35.385708 161.472748,35.701004 162.764603,36.327293 
	C163.407959,36.819550 163.631927,36.956512 163.882980,37.049183 
	C164.053055,37.135693 164.223145,37.222206 164.802505,37.495720 
	C165.408569,37.852005 165.629791,37.978672 165.875427,38.062710 
	C165.875427,38.062710 165.945343,38.101624 166.111450,38.426414 
	C167.507050,39.175045 168.736542,39.598881 169.966034,40.022717 
	C170.517975,40.207554 171.069931,40.392395 171.772278,40.828148 
z"/>
<path fill="#B1B1B2" opacity="1.000000" stroke="none" 
	d="
M152.710724,32.034607 
	C152.992691,34.804585 152.934341,37.487087 152.514099,40.602230 
	C151.786255,41.032814 151.420303,41.030762 151.054367,41.028709 
	C151.048096,38.348240 151.041809,35.667770 151.008133,32.544258 
	C151.443970,32.049854 151.907196,31.998497 152.710724,32.034607 
z"/>
<path fill="#8A8A8A" opacity="1.000000" stroke="none" 
	d="
M159.747742,34.726799 
	C159.452011,35.178642 159.220642,35.393230 158.685242,35.896019 
	C157.344254,36.139381 156.405991,36.200916 155.467728,36.262447 
	C155.332306,35.157841 155.196884,34.053230 154.989899,32.530952 
	C156.516708,32.869911 158.115082,33.626545 159.747742,34.726799 
z"/>
<path fill="#707070" opacity="1.000000" stroke="none" 
	d="
M136.032257,128.012894 
	C136.032257,128.012894 135.637863,128.053070 135.439697,128.057373 
	C134.758774,125.063751 133.552795,126.910225 132.208069,127.732574 
	C131.951462,127.129143 131.998230,126.447243 132.347717,125.271667 
	C133.697723,124.469772 134.744980,124.161560 135.862427,124.266701 
	C135.965836,125.791000 135.999039,126.901947 136.032257,128.012894 
z"/>
<path fill="#7C7C7B" opacity="1.000000" stroke="none" 
	d="
M96.988937,143.991333 
	C97.371124,143.661911 97.753319,143.332489 98.393234,142.966858 
	C98.469658,144.309616 98.288353,145.688568 97.854256,147.315338 
	C97.601463,147.563126 97.284210,147.291321 97.143211,146.766617 
	C96.997787,145.491714 96.993362,144.741531 96.988937,143.991333 
z"/>
<path fill="#4F4F50" opacity="1.000000" stroke="none" 
	d="
M169.835220,39.684479 
	C168.736542,39.598881 167.507050,39.175045 166.105026,38.465904 
	C167.189804,38.569145 168.447098,38.957691 169.835220,39.684479 
z"/>
<path fill="#87C1D3" opacity="1.000000" stroke="none" 
	d="
M133.313629,53.872478 
	C132.736481,53.287254 132.366730,52.532055 131.966888,51.460484 
	C132.419434,51.397133 132.902100,51.650154 133.644531,52.040855 
	C133.776535,52.686523 133.648788,53.194515 133.313629,53.872478 
z"/>
<path fill="#4F4F50" opacity="1.000000" stroke="none" 
	d="
M165.853577,37.810738 
	C165.629791,37.978672 165.408569,37.852005 165.085434,37.539089 
	C165.249985,37.449898 165.540848,37.504330 165.853577,37.810738 
z"/>
<path fill="#4F4F50" opacity="1.000000" stroke="none" 
	d="
M163.865753,36.792107 
	C163.631927,36.956512 163.407959,36.819550 163.084106,36.487350 
	C163.254257,36.402618 163.551392,36.468822 163.865753,36.792107 
z"/>
<path fill="#707070" opacity="1.000000" stroke="none" 
	d="
M131.195648,128.540588 
	C131.107407,128.327896 131.258728,128.167542 131.611145,127.986961 
	C131.774414,128.212158 131.648743,128.420883 131.195648,128.540588 
z"/>
<path fill="#73A7B9" opacity="1.000000" stroke="none" 
	d="
M127.042580,107.981743 
	C127.160149,111.471794 127.277718,114.961838 126.859276,118.776794 
	C125.869049,119.290939 125.247131,119.351143 124.986794,119.689545 
	C122.584267,122.812340 119.267860,122.832184 115.694008,123.139908 
	C110.941299,123.549133 109.400200,120.737373 107.933388,117.300537 
	C107.849480,117.103935 107.336311,117.090546 107.022919,116.991882 
	C107.424187,115.110710 107.825455,113.229546 108.737396,111.358917 
	C109.826729,111.578506 110.405396,111.787544 110.990456,112.000694 
	C110.996857,112.004807 111.009354,112.013504 111.180504,112.249969 
	C111.896095,112.657898 112.440536,112.829346 112.990852,113.002487 
	C112.996735,113.004189 113.003662,113.014229 113.110840,113.228256 
	C113.417297,113.705200 113.673210,113.889488 113.990936,113.999603 
	C113.996117,114.004066 114.005508,114.013992 114.172020,114.319885 
	C117.220551,115.415092 120.102577,116.204414 123.044250,116.617249 
	C123.729774,113.153694 124.355644,110.066612 125.201584,106.975746 
	C125.421654,106.971962 125.860970,106.991600 126.137924,106.999641 
	C126.599480,107.014305 126.784081,107.020927 126.964859,107.267822 
	C126.961044,107.508095 127.042580,107.981743 127.042580,107.981743 
z"/>
<path fill="#77B0C5" opacity="1.000000" stroke="none" 
	d="
M124.981514,106.979530 
	C124.355644,110.066612 123.729774,113.153694 122.714981,116.477280 
	C119.552544,115.813850 116.779022,114.913918 114.005508,114.013992 
	C114.005508,114.013992 113.996117,114.004066 113.881561,113.787338 
	C113.568573,113.308304 113.314125,113.122849 113.003662,113.014229 
	C113.003662,113.014229 112.996735,113.004189 112.819405,112.766373 
	C112.097832,112.356873 111.553589,112.185188 111.009354,112.013504 
	C111.009354,112.013504 110.996857,112.004807 110.864616,111.729179 
	C110.131126,110.932693 109.529877,110.411835 108.928627,109.890968 
	C108.928627,109.890968 108.843903,109.508125 108.893806,108.839600 
	C108.968170,104.107719 108.992630,100.044373 109.361679,95.988449 
	C110.820099,97.910324 111.933929,99.824776 113.038681,102.134598 
	C114.889694,108.154678 118.014214,109.317902 124.981514,106.979530 
z"/>
<path fill="#6D9FAF" opacity="1.000000" stroke="none" 
	d="
M107.009689,117.437424 
	C107.336311,117.090546 107.849480,117.103935 107.933388,117.300537 
	C109.400200,120.737373 110.941299,123.549133 115.694008,123.139908 
	C119.267860,122.832184 122.584267,122.812340 124.986794,119.689545 
	C125.247131,119.351143 125.869049,119.290939 126.686081,119.071091 
	C126.966949,122.493484 127.697639,126.982613 123.537170,127.962486 
	C119.218895,128.979523 114.182526,129.241409 110.015732,127.987488 
	C105.500771,126.628777 107.226639,121.553909 107.009689,117.437424 
z"/>
<path fill="#0A4C80" opacity="1.000000" stroke="none" 
	d="
M108.949493,89.000801 
	C108.036324,88.232368 107.123154,87.463936 105.932770,86.160950 
	C105.356827,85.407410 105.058098,85.188416 104.831635,84.548828 
	C104.140915,79.123329 103.410728,74.112801 102.553528,69.124100 
	C102.483894,68.718834 101.545250,68.462883 100.985733,67.812988 
	C100.603867,66.986366 100.246674,66.484306 99.816666,65.661865 
	C99.584587,62.631508 99.425316,59.921520 99.415939,57.217659 
	C99.565842,57.223778 99.865875,57.221249 99.935883,57.543522 
	C101.974472,60.203293 103.943047,62.540791 106.028229,65.197868 
	C106.761658,65.692078 107.378464,65.866714 107.996292,66.018578 
	C107.997307,65.995804 107.962410,66.025169 107.973808,66.318680 
	C106.943474,69.989174 103.913712,73.205681 107.231239,77.301605 
	C107.856529,81.450256 108.403015,85.225533 108.949493,89.000801 
z"/>
<path fill="#4582B2" opacity="1.000000" stroke="none" 
	d="
M109.089294,89.205887 
	C108.403015,85.225533 107.856529,81.450256 107.542870,77.316956 
	C108.403191,76.938126 109.030693,76.917328 109.772064,77.270599 
	C110.965591,82.588242 117.623177,84.313026 117.094261,90.403183 
	C117.073196,90.633690 117.028618,91.094460 116.730042,91.256760 
	C114.001022,93.714996 111.979561,96.074623 114.244240,99.687141 
	C114.439560,99.998703 113.474045,101.037987 113.047760,101.739227 
	C111.933929,99.824776 110.820099,97.910324 109.361328,95.660751 
	C109.006943,94.888603 108.997490,94.451561 108.988037,94.014526 
	C109.068390,92.480011 109.148743,90.945496 109.089294,89.205887 
z"/>
<path fill="#3C5767" opacity="1.000000" stroke="none" 
	d="
M127.311508,108.123123 
	C127.042580,107.981743 126.961044,107.508095 127.316101,107.234901 
	C131.236099,103.702995 129.853577,99.935455 129.073303,96.149986 
	C129.566803,96.087425 129.765030,96.074364 130.353485,96.143402 
	C131.160278,98.187462 131.574890,100.149857 131.993805,102.111320 
	C133.055511,107.082489 134.119141,112.053261 135.420502,117.315819 
	C135.753326,119.399544 135.847626,121.191635 135.899689,123.200302 
	C135.857483,123.416878 135.792236,123.853340 135.792236,123.853348 
	C134.744980,124.161560 133.697723,124.469772 132.358337,124.929825 
	C132.033951,124.598442 132.001678,124.115227 132.242157,123.043747 
	C133.329391,119.927338 133.388504,117.728828 130.125458,116.980080 
	C130.097153,115.902885 130.068848,114.825699 130.245758,113.177307 
	C130.003189,111.779022 129.555435,110.951920 129.107666,110.124825 
	C128.598587,109.504723 128.089508,108.884613 127.311508,108.123123 
z"/>
<path fill="#8E8E8E" opacity="1.000000" stroke="none" 
	d="
M97.958221,130.539825 
	C92.445251,133.782043 88.526184,128.795837 83.372955,127.651917 
	C83.006538,126.140121 83.012383,125.074745 83.419907,124.018356 
	C88.544006,124.689186 93.266441,125.351028 97.988861,126.012878 
	C97.986221,127.385094 97.983582,128.757309 97.958221,130.539825 
z"/>
<path fill="#425961" opacity="1.000000" stroke="none" 
	d="
M103.706909,100.004105 
	C103.404968,106.671242 103.315651,113.360306 102.632301,119.988121 
	C102.485199,121.414848 100.193878,122.620499 98.511131,123.586029 
	C98.111221,122.817017 98.090454,122.389954 98.087936,121.557785 
	C98.221367,120.351776 98.336555,119.550888 98.755280,118.704315 
	C99.973679,115.419289 100.888542,112.179947 101.837326,108.533112 
	C101.614029,105.782021 101.356819,103.438431 101.357819,100.957909 
	C102.312996,100.548691 103.009949,100.276398 103.706909,100.004105 
z"/>
<path fill="#8A8A8A" opacity="1.000000" stroke="none" 
	d="
M98.069679,121.962891 
	C98.090454,122.389954 98.111221,122.817017 98.147209,123.563141 
	C98.115929,124.355240 98.069435,124.828255 98.005905,125.657074 
	C93.266441,125.351028 88.544006,124.689186 83.407623,123.757690 
	C82.985970,123.314308 82.978264,123.140587 82.973343,122.594429 
	C82.979065,121.474899 82.982010,120.727791 83.416534,119.982727 
	C88.588623,120.644135 93.329155,121.303513 98.069679,121.962891 
z"/>
<path fill="#425961" opacity="1.000000" stroke="none" 
	d="
M104.759361,84.969429 
	C105.058098,85.188416 105.356827,85.407410 105.767212,85.885406 
	C105.722183,87.988121 105.622734,89.838989 105.393242,91.673599 
	C105.146896,93.642876 104.778343,95.596863 103.921799,97.527580 
	C103.191414,95.689682 103.002350,93.881729 102.847847,91.723923 
	C102.525002,90.593597 102.167595,89.813133 101.872604,88.634270 
	C101.955063,87.166214 101.975098,86.096558 102.343384,85.042847 
	C103.380882,85.029007 104.070122,84.999222 104.759361,84.969429 
z"/>
<path fill="#6D9FAF" opacity="1.000000" stroke="none" 
	d="
M108.688049,94.254166 
	C108.997490,94.451561 109.006943,94.888603 109.016747,95.653336 
	C108.992630,100.044373 108.968170,104.107719 108.883743,108.643799 
	C105.557961,104.335281 106.534340,99.427620 108.688049,94.254166 
z"/>
<path fill="#353639" opacity="1.000000" stroke="none" 
	d="
M102.813286,92.073776 
	C103.002350,93.881729 103.191414,95.689682 103.614746,97.725479 
	C103.846642,98.411560 103.844276,98.869781 103.774414,99.666061 
	C103.009949,100.276398 102.312996,100.548691 101.322365,100.533554 
	C101.623558,97.522003 102.218422,94.797890 102.813286,92.073776 
z"/>
<path fill="#707070" opacity="1.000000" stroke="none" 
	d="
M130.094284,117.353745 
	C133.388504,117.728828 133.329391,119.927338 132.246155,122.681000 
	C131.339340,121.180145 130.701218,119.453781 130.094284,117.353745 
z"/>
<path fill="#707070" opacity="1.000000" stroke="none" 
	d="
M129.091248,110.440369 
	C129.555435,110.951920 130.003189,111.779022 130.243729,112.773148 
	C129.715942,112.212097 129.395386,111.484009 129.091248,110.440369 
z"/>
<path fill="#87C1D3" opacity="1.000000" stroke="none" 
	d="
M108.898087,110.144714 
	C109.529877,110.411835 110.131126,110.932693 110.858215,111.725067 
	C110.405396,111.787544 109.826729,111.578506 109.027435,111.137726 
	C108.827049,110.736816 108.847298,110.567642 108.898087,110.144714 
z"/>
<path fill="#0C0C0F" opacity="1.000000" stroke="none" 
	d="
M59.407139,115.003860 
	C58.886978,112.255898 58.826569,109.506218 59.200745,106.310455 
	C61.241486,103.947556 62.605064,100.727097 64.502205,100.374084 
	C69.027687,99.532013 73.804955,100.043114 78.556641,100.391212 
	C78.690163,101.555450 78.747581,102.336182 78.704704,103.530396 
	C78.670601,105.918854 78.736794,107.893829 78.759819,110.310837 
	C78.704720,112.519470 78.692780,114.286064 78.471130,116.301270 
	C78.393127,118.004456 78.524826,119.459030 78.641441,121.299042 
	C78.584976,122.711128 78.543587,123.737793 78.217751,124.847763 
	C77.900650,125.960907 77.867981,126.990738 77.835320,128.020569 
	C74.198303,125.910416 70.363220,124.052872 67.086273,121.483498 
	C66.405884,120.950027 67.795403,117.776649 68.413002,115.002159 
	C66.222145,115.002159 63.044514,115.002159 59.407139,115.003860 
z"/>
<path fill="#AAAAAA" opacity="1.000000" stroke="none" 
	d="
M78.502197,124.764458 
	C78.543587,123.737793 78.584976,122.711128 78.976776,121.345253 
	C79.552277,120.994370 79.777367,120.982697 80.121613,121.266373 
	C80.531639,122.346420 80.822525,123.131134 81.074150,124.331131 
	C81.682922,126.558548 82.330956,128.370667 82.978989,130.182785 
	C82.971664,131.819962 82.964325,133.457138 82.583069,135.605255 
	C81.832520,139.737488 81.455879,143.358810 81.055069,147.316162 
	C81.019920,148.101273 81.008957,148.550339 80.680649,148.968323 
	C79.576767,148.622894 78.790237,148.308548 78.003708,147.994202 
	C77.997047,145.937546 77.990395,143.880875 77.977173,141.382965 
	C78.163750,136.988831 78.356895,133.035934 78.667450,128.229706 
	C78.690636,126.505737 78.596420,125.635094 78.502197,124.764458 
z"/>
<path fill="#4F4F50" opacity="1.000000" stroke="none" 
	d="
M78.217758,124.847763 
	C78.596420,125.635094 78.690636,126.505737 78.634995,127.795242 
	C78.485146,128.214111 78.147636,128.160751 77.991478,128.090668 
	C77.867981,126.990738 77.900650,125.960907 78.217758,124.847763 
z"/>
<path fill="#B1B1B2" opacity="1.000000" stroke="none" 
	d="
M151.969391,128.370026 
	C151.958038,127.223991 151.965729,126.461426 151.980606,124.952301 
	C152.674133,122.773331 153.360458,121.340912 154.342957,119.966537 
	C154.838409,119.996582 155.037659,119.968597 155.269409,120.358124 
	C155.362213,122.443367 155.422501,124.111099 155.325272,126.207253 
	C155.283493,127.830116 155.399246,129.024567 155.479614,130.660416 
	C155.615784,134.869171 155.787323,138.636520 155.958862,142.403885 
	C155.417313,145.051636 154.875763,147.699402 154.164444,150.702133 
	C153.645691,147.040604 153.263138,143.026627 152.960236,139.006638 
	C152.775314,136.552261 152.712891,134.088623 152.297775,131.344711 
	C151.996216,130.291351 151.992325,129.522415 151.969391,128.370026 
z"/>
<path fill="#8A8A8A" opacity="1.000000" stroke="none" 
	d="
M80.998001,148.999405 
	C81.008957,148.550339 81.019920,148.101273 81.286240,147.322586 
	C81.541595,146.992966 82.005592,146.999390 82.005592,146.999390 
	C84.451286,146.768021 86.940666,146.745651 89.330269,146.246033 
	C91.678986,145.754959 93.926392,144.779358 96.603600,144.003860 
	C96.993362,144.741531 96.997787,145.491714 96.997849,146.616608 
	C92.280136,148.331787 87.566788,149.672256 82.427200,150.736450 
	C81.666641,149.973251 81.332321,149.486328 80.998001,148.999405 
z"/>
<path fill="#828282" opacity="1.000000" stroke="none" 
	d="
M82.008194,146.579178 
	C82.005592,146.999390 81.541595,146.992966 81.310425,146.986542 
	C81.455879,143.358810 81.832520,139.737488 82.601730,136.014267 
	C82.666466,139.327896 82.338631,142.743423 82.008194,146.579178 
z"/>
<path fill="#828282" opacity="1.000000" stroke="none" 
	d="
M82.985138,129.818848 
	C82.330956,128.370667 81.682922,126.558548 81.313950,124.232712 
	C82.052193,123.468292 82.511375,123.217575 82.970558,122.966858 
	C82.978264,123.140587 82.985970,123.314308 83.005951,123.748703 
	C83.012383,125.074745 83.006538,126.140121 83.004662,127.605377 
	C83.002853,128.488480 82.997070,128.971710 82.985138,129.818848 
z"/>
<path fill="#16161B" opacity="1.000000" stroke="none" 
	d="
M59.912106,88.047752 
	C59.652283,84.671165 59.392456,81.294579 59.184837,77.470215 
	C62.336613,76.689445 64.163086,75.475891 64.423889,71.874039 
	C64.625114,69.095039 66.006104,66.401451 66.939453,63.303810 
	C70.213943,64.424088 73.411522,65.910446 77.017570,67.225143 
	C77.426048,67.053490 77.783707,67.078995 77.783707,67.078995 
	C77.783707,67.078995 78.141342,67.053062 78.141342,67.053062 
	C78.315147,68.702934 78.488953,70.352798 78.458206,72.395119 
	C78.253647,72.787567 77.894508,72.974236 77.558708,72.937096 
	C71.284996,70.386322 74.915787,78.865303 70.862930,78.851982 
	C73.220795,78.565948 75.578659,78.279922 77.967590,78.249054 
	C77.974167,78.673805 77.949661,78.843407 77.694550,79.009109 
	C77.463943,79.005211 77.002419,79.004845 76.652275,79.158127 
	C74.536079,79.544502 72.770027,79.777580 70.659821,80.047577 
	C69.210449,81.056122 68.105225,82.027756 67.000000,82.999695 
	C67.000000,83.000000 66.999390,83.000000 66.617493,83.000931 
	C64.127762,84.683830 62.019932,86.365791 59.912106,88.047752 
M66.512413,73.437538 
	C66.512413,73.437538 66.556190,73.519852 66.512413,73.437538 
z"/>
<path fill="#252527" opacity="1.000000" stroke="none" 
	d="
M62.977608,42.220657 
	C65.395599,40.644043 67.873817,39.427830 70.847160,38.432972 
	C73.620239,40.442368 75.898193,42.230404 78.176147,44.018440 
	C78.268814,45.727081 78.361488,47.435722 78.153412,49.651367 
	C77.781364,50.258499 77.630806,50.423134 77.651413,50.448452 
	C77.801476,50.632820 77.985985,50.789162 78.159607,50.954361 
	C78.274063,53.360313 78.388527,55.766262 78.383949,58.574203 
	C76.187706,58.691113 74.110497,58.406033 71.599327,58.061394 
	C71.854935,56.461758 72.050758,55.236256 72.246582,54.010750 
	C71.940094,54.217781 71.633598,54.424809 71.327103,54.631840 
	C68.564011,50.614910 65.800919,46.597980 62.977608,42.220657 
z"/>
<path fill="#252527" opacity="1.000000" stroke="none" 
	d="
M78.066650,61.126598 
	C78.345749,61.471367 78.426048,61.902855 78.392471,62.648857 
	C78.141678,62.380020 78.004768,61.796669 78.066650,61.126598 
z"/>
<path fill="#252527" opacity="1.000000" stroke="none" 
	d="
M78.317261,66.735443 
	C78.141342,67.053062 77.783707,67.078995 77.783707,67.078995 
	C77.783707,67.078995 77.426048,67.053490 77.248299,67.052132 
	C77.433784,66.291893 77.797020,65.533012 78.220276,64.527954 
	C78.351242,64.993797 78.422211,65.705811 78.317261,66.735443 
z"/>
<path fill="#959595" opacity="1.000000" stroke="none" 
	d="
M80.680649,148.968323 
	C81.332321,149.486328 81.666641,149.973251 82.051949,150.764587 
	C81.906158,151.710052 81.709389,152.351105 81.254868,152.998596 
	C80.113197,152.187256 79.229279,151.369492 78.154922,150.313950 
	C77.974907,149.613312 77.985336,149.150467 77.999741,148.340912 
	C78.790237,148.308548 79.576767,148.622894 80.680649,148.968323 
z"/>
<path fill="#B1B1B2" opacity="1.000000" stroke="none" 
	d="
M133.826660,56.143181 
	C138.242844,58.319801 142.653168,60.508423 147.079605,62.663982 
	C148.095184,63.158554 149.166122,63.539433 150.608383,64.241928 
	C151.021744,64.690788 151.038330,64.870354 151.046478,65.481323 
	C151.015747,67.938499 150.993500,69.964264 150.588226,71.984314 
	C145.460144,70.653252 140.715088,69.327888 135.908722,67.649727 
	C135.601547,66.179337 135.355728,65.061745 135.160919,63.544006 
	C134.974380,62.109764 134.736832,61.075661 134.469757,59.710922 
	C134.235718,58.301254 134.031189,57.222218 133.826660,56.143181 
z"/>
<path fill="#0E70B7" opacity="1.000000" stroke="none" 
	d="
M133.605606,56.044010 
	C134.031189,57.222218 134.235718,58.301254 134.143982,59.718513 
	C130.214981,64.736504 126.582230,69.416275 122.705582,74.061829 
	C122.461693,74.027618 121.970306,73.993942 121.990334,73.989258 
	C122.010361,73.984573 122.017731,74.025047 121.846039,73.723343 
	C119.773132,72.616272 117.871910,71.810921 115.985626,71.000580 
	C116.000549,70.995598 115.998390,71.026192 115.992149,70.690430 
	C115.328766,69.231461 114.671623,68.108253 114.006615,66.993286 
	C113.998741,67.001526 113.983513,67.018509 114.225151,66.925819 
	C114.650543,66.550110 114.834297,66.267097 115.009201,65.992233 
	C115.000351,66.000389 114.984184,66.018211 115.221252,65.920258 
	C115.644958,65.543068 115.831596,65.263824 116.009888,64.992508 
	C116.001526,65.000443 115.989090,65.019852 116.280281,64.881172 
	C117.055641,63.832664 117.539810,62.922836 118.011276,62.006378 
	C117.998558,61.999741 118.012787,62.024921 118.251579,62.047409 
	C118.490372,62.069901 118.967842,62.023716 119.250099,62.229881 
	C121.525101,62.524136 124.077118,63.423027 125.386246,62.520031 
	C127.638824,60.966282 129.117004,58.289829 130.920197,56.084587 
	C131.389999,55.850601 131.859802,55.616611 132.570282,55.276291 
	C132.966217,55.454861 133.157410,55.713150 133.605606,56.044010 
z"/>
<path fill="#A3A3A2" opacity="1.000000" stroke="none" 
	d="
M151.054932,65.049911 
	C151.038330,64.870354 151.021744,64.690788 150.975586,64.242027 
	C150.960312,61.276608 150.974640,58.580391 150.970764,55.432987 
	C150.969009,51.951000 150.985443,48.920200 150.975433,45.433784 
	C150.973358,43.924629 150.997726,42.871094 151.038239,41.423134 
	C151.420303,41.030762 151.786255,41.032814 152.425781,41.043953 
	C152.721481,48.750729 152.743576,56.448418 152.407516,64.601479 
	C151.718063,65.028549 151.386581,65.026237 151.054932,65.049911 
z"/>
<path fill="#101114" opacity="1.000000" stroke="none" 
	d="
M156.279480,142.235397 
	C155.787323,138.636520 155.615784,134.869171 155.661102,130.638382 
	C155.877960,130.174957 156.208420,130.017868 156.517075,129.841583 
	C158.530777,128.122681 159.988647,125.887154 161.989395,125.173454 
	C167.045944,123.369667 166.719894,120.639267 162.962173,115.997459 
	C167.788559,115.997459 171.370163,115.997459 174.951752,115.997459 
	C174.981537,118.370491 175.011307,120.743515 174.623810,123.610275 
	C171.684845,125.415680 169.163147,126.727364 166.779602,127.967171 
	C167.471237,129.727631 168.157822,131.475189 168.941605,133.470200 
	C165.900208,134.466278 163.437363,135.272888 160.634003,136.191025 
	C164.978729,136.547760 168.669647,136.850800 172.360565,137.153854 
	C167.107071,138.791534 161.853592,140.429214 156.279480,142.235397 
z"/>
<path fill="#16161B" opacity="1.000000" stroke="none" 
	d="
M172.678223,137.205170 
	C168.669647,136.850800 164.978729,136.547760 160.634003,136.191025 
	C163.437363,135.272888 165.900208,134.466278 168.941605,133.470200 
	C168.157822,131.475189 167.471237,129.727631 166.779602,127.967171 
	C169.163147,126.727364 171.684845,125.415680 174.557190,124.050522 
	C175.043655,124.256363 175.170486,124.520020 175.481552,124.891472 
	C175.636948,128.030640 175.599091,131.066330 175.388153,134.741394 
	C175.109177,135.902863 175.003281,136.424973 174.897400,136.947067 
	C174.263550,137.050217 173.629700,137.153351 172.678223,137.205170 
z"/>
<path fill="#7C7C7B" opacity="1.000000" stroke="none" 
	d="
M175.190430,136.957031 
	C175.003281,136.424973 175.109177,135.902863 175.407455,135.195740 
	C175.963486,135.439331 176.327148,135.867950 176.669708,136.600464 
	C176.260239,136.925232 175.871841,136.946106 175.190430,136.957031 
z"/>
<path fill="#101114" opacity="1.000000" stroke="none" 
	d="
M154.887329,75.917557 
	C155.094131,74.239212 155.300919,72.560867 155.632599,70.477264 
	C156.308960,70.028076 156.860474,69.984146 157.664566,70.279007 
	C158.640945,73.646553 159.364746,76.675293 160.107224,79.782234 
	C160.372604,79.720512 159.524139,79.917854 157.889725,80.297997 
	C167.800751,83.049782 167.800751,83.049782 171.659103,89.092850 
	C170.451309,90.526840 169.200790,92.011559 167.900436,93.555435 
	C170.236923,94.709190 172.562103,95.857361 174.887268,97.005524 
	C174.967499,101.031792 175.047729,105.058067 174.702957,109.548645 
	C172.885849,110.217255 171.493729,110.421562 170.024139,110.637238 
	C170.818634,101.444214 170.407303,101.000496 161.438660,100.999969 
	C159.465942,100.999855 157.493240,101.003418 155.443329,100.670334 
	C155.317657,99.879562 155.269180,99.423729 155.463989,98.652199 
	C155.547852,94.562325 155.388428,90.788147 155.197433,86.641518 
	C155.053192,85.531738 154.940521,84.794411 154.890381,83.673035 
	C154.931046,80.831833 154.909180,78.374695 154.887329,75.917557 
M164.437927,93.487244 
	C164.437927,93.487244 164.520706,93.443413 164.437927,93.487244 
z"/>
<path fill="#16161B" opacity="1.000000" stroke="none" 
	d="
M174.955688,96.541092 
	C172.562103,95.857361 170.236923,94.709190 167.900436,93.555435 
	C169.200790,92.011559 170.451309,90.526840 171.659103,89.092850 
	C167.800751,83.049782 167.800751,83.049782 157.889725,80.297997 
	C159.524139,79.917854 160.372604,79.720512 160.107224,79.782234 
	C159.364746,76.675293 158.640945,73.646553 157.941360,70.271805 
	C157.965561,69.925812 158.005478,69.451675 158.326904,69.187881 
	C159.096771,68.593460 159.545212,68.262848 159.993652,67.932236 
	C162.411041,66.639870 164.828415,65.347511 167.598541,63.998840 
	C168.604919,65.776001 170.255936,67.985962 169.731674,69.374809 
	C167.906387,74.210396 170.844116,76.011406 174.462372,77.953369 
	C174.874802,84.035034 174.949463,90.055847 174.955688,96.541092 
z"/>
<path fill="#252527" opacity="1.000000" stroke="none" 
	d="
M166.066269,40.813248 
	C167.798141,41.418003 169.529999,42.022758 171.597305,42.630951 
	C170.216156,45.954838 169.251541,50.212196 166.586609,52.351028 
	C163.478439,54.845615 161.813370,56.238522 165.635071,59.717731 
	C163.395477,60.237804 161.702240,60.631004 160.894577,60.818558 
	C159.139984,62.811100 157.768860,64.368164 156.085876,65.947456 
	C155.671234,64.669601 155.568481,63.369511 155.737793,61.653259 
	C155.834457,60.735294 155.659058,60.233490 155.483658,59.731686 
	C155.468002,59.409054 155.462662,59.086254 155.736267,58.493328 
	C155.832489,57.725742 155.660110,57.228111 155.487732,56.730484 
	C155.509705,54.371922 155.531677,52.013359 156.048370,49.346214 
	C162.437057,49.445259 163.697311,44.487347 166.066269,40.813248 
z"/>
<path fill="#101114" opacity="1.000000" stroke="none" 
	d="
M159.707962,67.976074 
	C159.545212,68.262848 159.096771,68.593460 158.360657,68.952370 
	C158.522736,68.660416 158.972504,68.340164 159.707962,67.976074 
z"/>
<path fill="#B1B1B2" opacity="1.000000" stroke="none" 
	d="
M99.266045,57.211536 
	C99.425316,59.921520 99.584587,62.631508 99.549492,65.776436 
	C99.063385,66.467422 98.771637,66.723473 98.093536,66.983032 
	C95.358101,67.549553 92.873886,67.800964 90.691109,68.747490 
	C87.291809,70.221527 84.097237,72.167671 80.815895,73.913734 
	C80.882584,61.686401 80.938179,49.458988 81.029167,37.231838 
	C81.041336,35.596302 81.232445,33.962097 81.638733,31.987827 
	C82.297386,35.456230 82.658012,39.264080 83.026329,43.524208 
	C83.024918,46.681175 83.015816,49.385868 83.010010,52.539688 
	C83.013298,56.089882 83.013298,59.190948 83.013298,63.159859 
	C88.412209,60.212925 92.989006,57.714729 98.116074,55.314819 
	C98.866249,56.012577 99.066147,56.612057 99.266045,57.211536 
z"/>
<path fill="#218CD7" opacity="1.000000" stroke="none" 
	d="
M99.415939,57.217659 
	C99.066147,56.612057 98.866249,56.012577 98.453690,55.182388 
	C98.245438,54.574005 98.249832,54.196323 98.279373,53.536934 
	C100.515724,53.505371 102.415428,48.786163 104.843506,53.455673 
	C104.215355,54.696827 103.609016,55.326271 102.698792,56.102509 
	C101.551888,56.573280 100.708878,56.897263 99.865875,57.221249 
	C99.865875,57.221249 99.565842,57.223778 99.415939,57.217659 
z"/>
<path fill="#0C0C0F" opacity="1.000000" stroke="none" 
	d="
M155.520538,101.005287 
	C157.493240,101.003418 159.465942,100.999855 161.438660,100.999969 
	C170.407303,101.000496 170.818634,101.444214 170.024139,110.637238 
	C171.493729,110.421562 172.885849,110.217255 174.627808,110.007004 
	C175.020218,111.717667 175.062790,113.434273 175.028564,115.574165 
	C171.370163,115.997459 167.788559,115.997459 162.962173,115.997459 
	C166.719894,120.639267 167.045944,123.369667 161.989395,125.173454 
	C159.988647,125.887154 158.530777,128.122681 156.473846,129.516571 
	C155.908920,128.171509 155.695877,126.975174 155.482819,125.778839 
	C155.422501,124.111099 155.362213,122.443367 155.508179,120.160088 
	C155.583359,118.361862 155.452286,117.179169 155.331161,115.530380 
	C155.400909,110.377945 155.460724,105.691612 155.520538,101.005287 
z"/>
<path fill="#AAAAAA" opacity="1.000000" stroke="none" 
	d="
M80.595879,73.933975 
	C84.097237,72.167671 87.291809,70.221527 90.691109,68.747490 
	C92.873886,67.800964 95.358101,67.549553 98.094986,67.136414 
	C98.482788,67.286270 98.609383,67.565567 98.516403,67.968796 
	C98.465523,70.287766 98.507622,72.203499 98.420525,74.338440 
	C98.209457,74.706451 98.127579,74.855270 97.623489,75.002884 
	C94.567772,75.619576 91.888390,76.090668 89.313255,76.895340 
	C86.564629,77.754234 83.914436,78.928185 81.177353,79.583405 
	C80.739067,77.492577 80.344696,75.782951 79.950325,74.073318 
	C79.950325,74.073318 80.375862,73.954208 80.595879,73.933975 
z"/>
<path fill="#16161B" opacity="1.000000" stroke="none" 
	d="
M78.293144,43.581505 
	C75.898193,42.230404 73.620239,40.442368 71.189514,38.364769 
	C73.244110,37.040966 75.451469,36.006721 78.052322,35.004333 
	C78.433922,37.738983 78.422028,40.441780 78.293144,43.581505 
z"/>
<path fill="#707070" opacity="1.000000" stroke="none" 
	d="
M79.682800,73.929367 
	C80.344696,75.782951 80.739067,77.492577 81.122574,79.965607 
	C81.076714,81.499062 81.041710,82.269112 80.625610,83.049507 
	C79.736275,83.046425 79.228020,83.033005 78.535141,83.076164 
	C78.350517,83.132744 77.986443,83.003929 78.043839,82.628777 
	C78.052948,81.498528 78.004654,80.743423 77.990570,79.743156 
	C78.024796,79.497986 77.925163,79.013008 77.925163,79.013008 
	C77.949661,78.843407 77.974167,78.673805 78.027069,77.833405 
	C78.001823,75.766487 77.948166,74.370361 77.894508,72.974236 
	C77.894508,72.974236 78.253647,72.787567 78.454422,72.812965 
	C78.908554,73.154045 79.161919,73.469727 79.682800,73.929367 
z"/>
<path fill="#16161B" opacity="1.000000" stroke="none" 
	d="
M78.264404,50.706413 
	C77.985985,50.789162 77.801476,50.632820 77.651413,50.448452 
	C77.630806,50.423134 77.781364,50.258499 78.011375,50.058327 
	C78.236450,50.125015 78.302826,50.291744 78.264404,50.706413 
z"/>
<path fill="#218CD7" opacity="1.000000" stroke="none" 
	d="
M110.926895,51.908710 
	C111.028442,51.158661 111.129997,50.408611 111.297340,49.279625 
	C112.935951,48.338604 115.659683,46.992466 115.896713,47.340397 
	C117.560722,49.782970 118.711952,52.574875 120.025551,55.986050 
	C120.018768,57.150066 120.013550,57.583134 120.005440,58.006683 
	C120.002548,57.997169 120.020676,58.009399 119.770630,58.008106 
	C119.354538,58.021313 119.188492,58.035816 118.750252,57.774437 
	C115.010139,56.059078 111.542221,54.619602 108.074303,53.180122 
	C108.793617,52.749744 109.512932,52.319370 110.635414,52.035973 
	C111.118446,52.231209 111.198311,52.279476 111.278183,52.327744 
	C111.161087,52.188065 111.043991,52.048389 110.926895,51.908710 
z"/>
<path fill="#1482D2" opacity="1.000000" stroke="none" 
	d="
M130.763596,55.746582 
	C129.117004,58.289829 127.638824,60.966282 125.386246,62.520031 
	C124.077118,63.423027 121.525101,62.524136 119.378250,61.901100 
	C119.489647,60.247231 119.755157,59.128315 120.020676,58.009399 
	C120.020676,58.009399 120.002548,57.997169 120.257141,57.849899 
	C120.696533,57.147388 120.881340,56.592144 121.066147,56.036903 
	C123.926857,50.974770 127.317688,53.962437 130.763596,55.746582 
z"/>
<path fill="#5C9CCD" opacity="1.000000" stroke="none" 
	d="
M120.813217,56.034473 
	C120.881340,56.592144 120.696533,57.147388 120.260033,57.859413 
	C120.013550,57.583134 120.018768,57.150066 120.039917,56.393669 
	C120.223991,56.057575 120.392143,56.044811 120.813217,56.034473 
z"/>
<path fill="#1482D2" opacity="1.000000" stroke="none" 
	d="
M122.010948,51.008472 
	C121.921692,51.037197 121.832436,51.065922 121.871689,51.047379 
	C122.000191,51.000114 122.010948,51.008472 122.010948,51.008472 
z"/>
<path fill="#1482D2" opacity="1.000000" stroke="none" 
	d="
M121.996162,50.994972 
	C122.082176,50.963512 122.172211,50.937195 122.136597,50.959675 
	C122.010948,51.008472 122.000191,51.000114 121.996162,50.994972 
z"/>
<path fill="#1F1F21" opacity="1.000000" stroke="none" 
	d="
M165.838470,40.565159 
	C163.697311,44.487347 162.437057,49.445259 156.196167,48.993443 
	C155.721436,44.987514 155.593597,41.025772 155.466736,36.663239 
	C156.405991,36.200916 157.344254,36.139381 158.636810,36.134277 
	C161.197617,37.566158 163.404129,38.941612 165.838470,40.565159 
z"/>
<path fill="#919191" opacity="1.000000" stroke="none" 
	d="
M154.468582,75.915436 
	C154.909180,78.374695 154.931046,80.831833 154.565201,83.727173 
	C153.784439,85.101364 153.391388,86.037354 152.964355,87.242836 
	C152.895950,87.690117 152.861526,87.867897 152.626831,88.037415 
	C152.426575,88.029137 152.024719,88.026031 151.785797,87.844307 
	C151.358536,87.104332 151.170227,86.546082 150.986267,85.551208 
	C150.985672,83.072571 150.980698,81.030563 150.981659,78.551514 
	C150.982147,76.072983 150.976700,74.031502 150.971252,71.990021 
	C150.993500,69.964264 151.015747,67.938499 151.046478,65.481323 
	C151.386581,65.026237 151.718063,65.028549 152.297668,65.061661 
	C153.047256,68.682091 153.548553,72.297707 154.468582,75.915436 
z"/>
<path fill="#8A8A8A" opacity="1.000000" stroke="none" 
	d="
M155.357834,60.118774 
	C155.659058,60.233490 155.834457,60.735294 155.746643,61.258598 
	C155.399628,61.022018 155.315826,60.763939 155.357834,60.118774 
z"/>
<path fill="#8A8A8A" opacity="1.000000" stroke="none" 
	d="
M155.359894,57.117283 
	C155.660110,57.228111 155.832489,57.725742 155.743988,58.251282 
	C155.399445,58.020824 155.315750,57.762455 155.359894,57.117283 
z"/>
<path fill="#8A8A8A" opacity="1.000000" stroke="none" 
	d="
M135.862427,124.266693 
	C135.792236,123.853340 135.857483,123.416878 136.269440,123.248405 
	C141.448486,122.389336 146.215607,121.698746 150.988983,121.404861 
	C151.014862,122.857895 151.034470,123.914215 151.054077,124.970528 
	C146.332169,125.981392 141.610275,126.992256 136.460312,128.007996 
	C135.999039,126.901947 135.965836,125.791000 135.862427,124.266693 
z"/>
<path fill="#707070" opacity="1.000000" stroke="none" 
	d="
M151.270233,124.968292 
	C151.034470,123.914215 151.014862,122.857895 150.997742,120.949402 
	C150.987396,117.059288 150.974564,114.021347 150.972717,110.556885 
	C150.987793,108.419945 150.991898,106.709511 151.111664,104.747810 
	C151.490555,104.011719 151.753799,103.526901 152.307175,103.331238 
	C153.082535,107.780739 153.567780,111.941086 154.033569,116.482269 
	C154.024994,117.878242 154.035889,118.893372 154.046783,119.908501 
	C153.360458,121.340912 152.674133,122.773331 151.952789,124.571701 
	C151.917770,124.937660 151.486389,124.966049 151.270233,124.968292 
z"/>
<path fill="#121317" opacity="1.000000" stroke="none" 
	d="
M60.043388,88.349190 
	C62.019932,86.365791 64.127762,84.683830 66.610771,83.359375 
	C66.776787,87.985359 66.567627,92.253838 66.340515,96.888695 
	C68.198250,96.534821 69.597282,96.268326 71.210693,96.240173 
	C73.612396,96.662842 75.799706,96.847176 78.148987,97.076355 
	C78.310966,97.121185 78.642311,97.177681 78.661331,97.533867 
	C78.613747,98.595940 78.547142,99.301826 78.480537,100.007713 
	C73.804955,100.043114 69.027687,99.532013 64.502205,100.374084 
	C62.605064,100.727097 61.241486,103.947556 59.283600,105.930168 
	C58.864971,102.945839 58.798069,99.895714 58.677776,96.456635 
	C59.141148,93.595337 59.657909,91.122978 60.043388,88.349190 
z"/>
<path fill="#1482D2" opacity="1.000000" stroke="none" 
	d="
M107.673874,53.184711 
	C111.542221,54.619602 115.010139,56.059078 118.697342,58.113892 
	C118.615341,59.827797 118.314064,60.926361 118.012787,62.024921 
	C118.012787,62.024921 117.998558,61.999741 117.709900,62.012913 
	C116.934784,62.366909 116.448326,62.707737 115.555176,63.034950 
	C109.579849,63.279053 105.881485,60.321800 103.002686,55.955719 
	C103.609016,55.326271 104.215355,54.696827 104.861771,53.827686 
	C105.692390,53.455093 106.482918,53.322193 107.673874,53.184711 
z"/>
<path fill="#87C1D3" opacity="1.000000" stroke="none" 
	d="
M113.038681,102.134605 
	C113.474045,101.037987 114.439560,99.998703 114.244240,99.687141 
	C111.979561,96.074623 114.001022,93.714996 116.875427,91.559563 
	C118.458992,93.652451 119.598587,95.604843 120.770615,97.612801 
	C122.183098,97.080513 123.516037,96.578209 124.901138,96.508606 
	C125.255859,100.291397 125.558418,103.641502 125.860970,106.991600 
	C125.860970,106.991600 125.421654,106.971962 125.201584,106.975746 
	C118.014214,109.317902 114.889694,108.154678 113.038681,102.134605 
z"/>
<path fill="#5F8A98" opacity="1.000000" stroke="none" 
	d="
M126.137924,106.999641 
	C125.558418,103.641502 125.255859,100.291397 124.953522,96.251625 
	C124.988625,95.391167 125.023499,95.220375 125.392418,95.064346 
	C126.743660,95.452553 127.760841,95.826019 128.778030,96.199486 
	C129.853577,99.935455 131.236099,103.702995 127.319916,106.994629 
	C126.784081,107.020927 126.599480,107.014305 126.137924,106.999641 
z"/>
<path fill="#87C1D3" opacity="1.000000" stroke="none" 
	d="
M114.172020,114.319885 
	C116.779022,114.913918 119.552544,115.813850 122.655327,116.853752 
	C120.102577,116.204414 117.220551,115.415092 114.172020,114.319885 
z"/>
<path fill="#87C1D3" opacity="1.000000" stroke="none" 
	d="
M111.180504,112.249977 
	C111.553589,112.185188 112.097832,112.356873 112.813522,112.764679 
	C112.440536,112.829346 111.896095,112.657898 111.180504,112.249977 
z"/>
<path fill="#87C1D3" opacity="1.000000" stroke="none" 
	d="
M113.110840,113.228256 
	C113.314125,113.122849 113.568573,113.308304 113.876373,113.782875 
	C113.673210,113.889488 113.417297,113.705200 113.110840,113.228256 
z"/>
<path fill="#0E70B7" opacity="1.000000" stroke="none" 
	d="
M102.698792,56.102509 
	C105.881485,60.321800 109.579849,63.279053 115.526718,63.364044 
	C115.933014,64.144447 115.961052,64.582153 115.989090,65.019852 
	C115.989090,65.019852 116.001526,65.000443 115.744148,65.049377 
	C115.319244,65.404945 115.151718,65.711578 114.984192,66.018219 
	C114.984184,66.018211 115.000351,66.000389 114.744934,66.052345 
	C114.320839,66.409035 114.152176,66.713768 113.983513,67.018509 
	C113.983513,67.018509 113.998741,67.001526 113.619247,66.954559 
	C111.480644,66.613449 109.721527,66.319305 107.962410,66.025169 
	C107.962410,66.025169 107.997307,65.995804 107.865616,65.725235 
	C107.126488,65.262535 106.519058,65.070412 105.911621,64.878288 
	C103.943047,62.540791 101.974472,60.203293 99.935883,57.543522 
	C100.708878,56.897263 101.551888,56.573280 102.698792,56.102509 
z"/>
<path fill="#182F3D" opacity="1.000000" stroke="none" 
	d="
M98.549713,74.119240 
	C98.507622,72.203499 98.465523,70.287766 98.763901,68.207718 
	C99.560341,68.704193 100.016296,69.364960 100.747520,70.424637 
	C100.875237,69.313568 100.942825,68.725563 101.010422,68.137550 
	C101.545250,68.462883 102.483894,68.718834 102.553528,69.124100 
	C103.410728,74.112801 104.140915,79.123329 104.831635,84.548828 
	C104.070122,84.999222 103.380882,85.029007 102.330872,84.611794 
	C100.829964,80.816277 99.689842,77.467758 98.549713,74.119240 
z"/>
<path fill="#5C9CCD" opacity="1.000000" stroke="none" 
	d="
M107.973808,66.318680 
	C109.721527,66.319305 111.480644,66.613449 113.627121,66.946312 
	C114.671623,68.108253 115.328766,69.231461 115.622261,70.658127 
	C108.626007,68.442711 110.688461,74.128822 109.658195,76.896523 
	C109.030693,76.917328 108.403191,76.938126 107.464058,76.943573 
	C103.913712,73.205681 106.943474,69.989174 107.973808,66.318680 
z"/>
<path fill="#425961" opacity="1.000000" stroke="none" 
	d="
M100.985733,67.812988 
	C100.942825,68.725563 100.875237,69.313568 100.747520,70.424637 
	C100.016296,69.364960 99.560341,68.704193 98.856880,67.804489 
	C98.609383,67.565567 98.482788,67.286270 98.481339,67.132889 
	C98.771637,66.723473 99.063385,66.467422 99.622307,66.096817 
	C100.246674,66.484306 100.603867,66.986366 100.985733,67.812988 
z"/>
<path fill="#5C9CCD" opacity="1.000000" stroke="none" 
	d="
M106.028229,65.197868 
	C106.519058,65.070412 107.126488,65.262535 107.864601,65.748001 
	C107.378464,65.866714 106.761658,65.692078 106.028229,65.197868 
z"/>
<path fill="#0A609F" opacity="1.000000" stroke="none" 
	d="
M109.772064,77.270599 
	C110.688461,74.128822 108.626007,68.442711 115.628502,70.993896 
	C115.998390,71.026192 116.000549,70.995598 116.142235,71.311111 
	C118.195190,72.426102 120.106461,73.225578 122.017731,74.025047 
	C122.017731,74.025047 122.010361,73.984573 122.006401,74.214600 
	C122.318115,74.328423 122.633797,74.212234 122.949478,74.096039 
	C126.582230,69.416275 130.214981,64.736504 134.173508,60.049149 
	C134.736832,61.075661 134.974380,62.109764 134.840240,63.695457 
	C132.304550,68.857147 130.140549,73.467239 127.655525,78.249413 
	C126.564156,80.733429 125.899712,83.088150 124.988686,85.343254 
	C124.305817,87.033600 123.305588,88.595734 122.210426,90.003510 
	C120.126259,87.004356 118.595413,88.264511 117.115326,90.172684 
	C117.623177,84.313026 110.965591,82.588242 109.772064,77.270599 
z"/>
<path fill="#77B0C5" opacity="1.000000" stroke="none" 
	d="
M117.094261,90.403183 
	C118.595413,88.264511 120.126259,87.004356 122.312180,90.343063 
	C123.452888,92.279243 124.255630,93.664421 125.058365,95.049591 
	C125.023499,95.220375 124.988625,95.391167 124.901352,95.818924 
	C123.516037,96.578209 122.183098,97.080513 120.770615,97.612801 
	C119.598587,95.604843 118.458992,93.652451 117.174011,91.397263 
	C117.028618,91.094460 117.073196,90.633690 117.094261,90.403183 
z"/>
<path fill="#828282" opacity="1.000000" stroke="none" 
	d="
M150.961746,110.983406 
	C150.974564,114.021347 150.987396,117.059288 150.991455,120.552689 
	C146.215607,121.698746 141.448486,122.389336 136.311646,123.031830 
	C135.847626,121.191635 135.753326,119.399544 135.423386,116.923973 
	C135.434509,114.163765 135.681274,112.087036 136.287598,109.963882 
	C138.917801,109.631882 141.219894,108.972244 143.450836,109.159607 
	C145.987640,109.372673 148.460876,110.342522 150.961746,110.983406 
z"/>
<path fill="#182F3D" opacity="1.000000" stroke="none" 
	d="
M135.928040,110.010307 
	C135.681274,112.087036 135.434509,114.163765 135.184875,116.632339 
	C134.119141,112.053261 133.055511,107.082489 131.993805,102.111320 
	C131.574890,100.149857 131.160278,98.187462 130.353455,95.675110 
	C129.990448,91.403267 130.017670,87.681808 130.310287,83.822075 
	C130.823410,82.872505 130.922729,81.972763 131.344421,81.265144 
	C133.231186,78.099098 129.230240,72.491577 135.581284,71.575806 
	C135.737518,73.319389 135.836823,74.663048 135.863373,76.439316 
	C135.853714,78.914856 135.916794,80.957779 135.898773,83.432602 
	C135.875336,85.909515 135.932999,87.954529 135.914459,90.432175 
	C135.886124,92.910095 135.933990,94.955383 135.912598,97.434021 
	C135.903946,99.910515 135.964569,101.953674 135.956299,104.422035 
	C135.900955,106.568268 135.914490,108.289284 135.928040,110.010307 
z"/>
<path fill="#0A4C80" opacity="1.000000" stroke="none" 
	d="
M130.044907,83.960358 
	C130.017670,87.681808 129.990448,91.403267 129.963226,95.593010 
	C129.765030,96.074364 129.566803,96.087425 129.073303,96.149986 
	C127.760841,95.826019 126.743660,95.452553 125.392418,95.064346 
	C124.255630,93.664421 123.452888,92.279243 122.548401,90.554512 
	C123.305588,88.595734 124.305817,87.033600 124.988686,85.343254 
	C125.899712,83.088150 126.564156,80.733429 127.721359,78.599686 
	C128.753769,80.505379 129.399338,82.232872 130.044907,83.960358 
z"/>
<path fill="#7C7C7B" opacity="1.000000" stroke="none" 
	d="
M98.087936,121.557785 
	C93.329155,121.303513 88.588623,120.644135 83.416153,119.536339 
	C82.684967,115.369278 82.385727,111.650635 82.492966,107.952644 
	C87.967384,107.324295 93.035324,106.675293 98.167587,106.460876 
	C98.365471,109.198143 98.499016,111.500824 98.488007,114.205887 
	C98.379539,115.988831 98.415634,117.369415 98.451736,118.749992 
	C98.336555,119.550888 98.221367,120.351776 98.087936,121.557785 
z"/>
<path fill="#252527" opacity="1.000000" stroke="none" 
	d="
M98.632568,113.803513 
	C98.499016,111.500824 98.365471,109.198143 98.210510,106.016037 
	C98.142136,102.759445 98.095177,100.382256 98.122116,97.665825 
	C98.303093,96.878021 98.410172,96.429474 98.831329,95.827209 
	C100.033669,93.459892 100.921921,91.246277 101.810181,89.032669 
	C102.167595,89.813133 102.525002,90.593597 102.847847,91.723923 
	C102.218422,94.797890 101.623558,97.522003 101.064148,100.670471 
	C101.356819,103.438431 101.614029,105.782021 101.521210,108.633202 
	C100.324966,110.695030 99.478767,112.249268 98.632568,113.803513 
z"/>
<path fill="#353639" opacity="1.000000" stroke="none" 
	d="
M98.488007,114.205887 
	C99.478767,112.249268 100.324966,110.695030 101.487289,109.040695 
	C100.888542,112.179947 99.973679,115.419289 98.755280,118.704315 
	C98.415634,117.369415 98.379539,115.988831 98.488007,114.205887 
z"/>
<path fill="#707070" opacity="1.000000" stroke="none" 
	d="
M82.086487,107.931992 
	C82.385727,111.650635 82.684967,115.369278 82.984589,119.534302 
	C82.982010,120.727791 82.979065,121.474899 82.973343,122.594429 
	C82.511375,123.217575 82.052193,123.468292 81.353210,123.817421 
	C80.822525,123.131134 80.531639,122.346420 80.113129,120.861984 
	C80.019829,119.081345 80.054153,118.000450 80.359421,116.653595 
	C80.672028,114.032265 82.516373,111.171555 78.802979,109.868805 
	C78.736794,107.893829 78.670601,105.918854 79.106873,103.524078 
	C80.407913,103.034462 81.206482,102.964653 82.013290,103.318596 
	C82.043182,105.138901 82.064835,106.535446 82.086487,107.931992 
z"/>
<path fill="#121317" opacity="1.000000" stroke="none" 
	d="
M101.872604,88.634270 
	C100.921921,91.246277 100.033669,93.459892 98.763550,95.415710 
	C98.271614,93.774521 98.161552,92.391129 98.123840,90.567368 
	C98.148911,87.753189 98.101624,85.379364 98.138382,82.566940 
	C98.163513,79.753593 98.104607,77.378838 98.045700,75.004089 
	C98.127579,74.855270 98.209457,74.706451 98.420525,74.338440 
	C99.689842,77.467758 100.829964,80.816277 101.982613,84.595848 
	C101.975098,86.096558 101.955063,87.166214 101.872604,88.634270 
z"/>
<path fill="#959595" opacity="1.000000" stroke="none" 
	d="
M82.005051,102.894836 
	C81.206482,102.964653 80.407913,103.034462 79.207169,103.110596 
	C78.747581,102.336182 78.690163,101.555450 78.556641,100.391212 
	C78.547142,99.301826 78.613747,98.595940 78.839973,97.298599 
	C79.285522,96.445015 79.571465,96.182877 80.191971,95.985153 
	C81.031548,96.712601 81.536560,97.375626 82.033569,98.434357 
	C82.016182,99.888084 82.006805,100.946106 81.995071,102.226852 
	C81.992714,102.449562 82.005051,102.894836 82.005051,102.894836 
z"/>
<path fill="#959595" opacity="1.000000" stroke="none" 
	d="
M78.759827,110.310837 
	C82.516373,111.171555 80.672028,114.032265 80.194168,116.411560 
	C79.398918,116.307877 79.039871,116.180267 78.680832,116.052666 
	C78.692780,114.286064 78.704720,112.519470 78.759827,110.310837 
z"/>
<path fill="#4F4F50" opacity="1.000000" stroke="none" 
	d="
M78.471130,116.301270 
	C79.039871,116.180267 79.398918,116.307877 79.923218,116.677513 
	C80.054153,118.000450 80.019829,119.081345 79.993988,120.566635 
	C79.777367,120.982697 79.552277,120.994370 78.991852,120.959824 
	C78.524826,119.459030 78.393127,118.004456 78.471130,116.301270 
z"/>
<path fill="#4F4F50" opacity="1.000000" stroke="none" 
	d="
M154.342957,119.966537 
	C154.035889,118.893372 154.024994,117.878242 154.348160,116.426842 
	C154.895218,115.992538 155.108231,115.994507 155.321228,115.996483 
	C155.452286,117.179169 155.583359,118.361862 155.475677,119.742584 
	C155.037659,119.968597 154.838409,119.996582 154.342957,119.966537 
z"/>
<path fill="#4F4F50" opacity="1.000000" stroke="none" 
	d="
M155.325287,126.207253 
	C155.695877,126.975174 155.908920,128.171509 156.165192,129.692856 
	C156.208420,130.017868 155.877960,130.174957 155.696472,130.196991 
	C155.399246,129.024567 155.283493,127.830116 155.325287,126.207253 
z"/>
<path fill="#101114" opacity="1.000000" stroke="none" 
	d="
M70.996307,96.001831 
	C69.597282,96.268326 68.198250,96.534821 66.340515,96.888695 
	C66.567627,92.253838 66.776787,87.985359 66.992668,83.358444 
	C66.999390,83.000000 67.000000,83.000000 67.361595,82.993027 
	C68.816788,81.994255 69.910378,81.002457 71.003975,80.010666 
	C72.770027,79.777580 74.536079,79.544502 76.763092,79.364716 
	C77.414345,79.677200 77.658447,79.867310 77.956360,79.988327 
	C78.004654,80.743423 78.052948,81.498528 77.694336,82.669144 
	C75.492203,84.124481 73.696968,85.164307 71.901741,86.204132 
	C72.267929,86.802994 72.634117,87.401855 72.998940,88.364761 
	C72.333153,90.155800 71.668724,91.582809 71.002975,93.383804 
	C70.999878,94.505798 70.998093,95.253815 70.996307,96.001831 
z"/>
<path fill="#101114" opacity="1.000000" stroke="none" 
	d="
M77.558708,72.937096 
	C77.948166,74.370361 78.001823,75.766487 77.996002,77.578255 
	C75.578659,78.279922 73.220795,78.565948 70.862930,78.851982 
	C74.915787,78.865303 71.284996,70.386322 77.558708,72.937096 
z"/>
<path fill="#121317" opacity="1.000000" stroke="none" 
	d="
M70.659821,80.047577 
	C69.910378,81.002457 68.816788,81.994255 67.361595,82.992722 
	C68.105225,82.027756 69.210449,81.056122 70.659821,80.047577 
z"/>
<path fill="#1F1F21" opacity="1.000000" stroke="none" 
	d="
M66.534302,73.478699 
	C66.556190,73.519852 66.512413,73.437538 66.534302,73.478699 
z"/>
<path fill="#0C0C0F" opacity="1.000000" stroke="none" 
	d="
M77.990578,79.743156 
	C77.658447,79.867310 77.414345,79.677200 77.113235,79.211426 
	C77.002419,79.004845 77.463943,79.005211 77.694550,79.009109 
	C77.925163,79.013008 78.024796,79.497986 77.990578,79.743156 
z"/>
<path fill="#AAAAAA" opacity="1.000000" stroke="none" 
	d="
M135.936127,76.006714 
	C135.836823,74.663048 135.737518,73.319389 135.705139,71.192146 
	C135.838058,69.606552 135.904053,68.804543 135.970047,68.002525 
	C140.715088,69.327888 145.460144,70.653252 150.588226,71.984314 
	C150.976700,74.031502 150.982147,76.072983 150.591125,78.555275 
	C148.200897,78.364510 146.243134,77.552834 144.204559,77.145638 
	C141.481247,76.601662 138.695221,76.371597 135.936127,76.006714 
z"/>
<path fill="#3C5767" opacity="1.000000" stroke="none" 
	d="
M135.908722,67.649727 
	C135.904053,68.804543 135.838058,69.606552 135.648224,70.792236 
	C129.230240,72.491577 133.231186,78.099098 131.344421,81.265144 
	C130.922729,81.972763 130.823410,82.872505 130.310287,83.822075 
	C129.399338,82.232872 128.753769,80.505379 128.042389,78.427612 
	C130.140549,73.467239 132.304550,68.857147 134.789215,64.095604 
	C135.355728,65.061745 135.601547,66.179337 135.908722,67.649727 
z"/>
<path fill="#5C9CCD" opacity="1.000000" stroke="none" 
	d="
M121.846039,73.723343 
	C120.106461,73.225578 118.195190,72.426102 116.127304,71.316101 
	C117.871910,71.810921 119.773132,72.616272 121.846039,73.723343 
z"/>
<path fill="#5C9CCD" opacity="1.000000" stroke="none" 
	d="
M118.251587,62.047409 
	C118.314064,60.926361 118.615341,59.827797 118.969528,58.389774 
	C119.188492,58.035816 119.354538,58.021313 119.770630,58.008106 
	C119.755157,59.128315 119.489647,60.247231 119.095993,61.694931 
	C118.967842,62.023716 118.490372,62.069901 118.251587,62.047409 
z"/>
<path fill="#5C9CCD" opacity="1.000000" stroke="none" 
	d="
M116.280281,64.881172 
	C115.961052,64.582153 115.933014,64.144447 115.933426,63.377655 
	C116.448326,62.707737 116.934784,62.366909 117.722610,62.019547 
	C117.539810,62.922836 117.055641,63.832664 116.280281,64.881172 
z"/>
<path fill="#5C9CCD" opacity="1.000000" stroke="none" 
	d="
M115.221252,65.920265 
	C115.151718,65.711578 115.319244,65.404945 115.752502,65.041443 
	C115.831596,65.263824 115.644958,65.543068 115.221252,65.920265 
z"/>
<path fill="#5C9CCD" opacity="1.000000" stroke="none" 
	d="
M114.225151,66.925819 
	C114.152176,66.713768 114.320839,66.409035 114.753784,66.044189 
	C114.834297,66.267097 114.650543,66.550110 114.225151,66.925819 
z"/>
<path fill="#5C9CCD" opacity="1.000000" stroke="none" 
	d="
M122.705582,74.061829 
	C122.633797,74.212234 122.318115,74.328423 121.986374,74.219284 
	C121.970306,73.993942 122.461693,74.027618 122.705582,74.061829 
z"/>
<path fill="#959595" opacity="1.000000" stroke="none" 
	d="
M155.331161,115.530380 
	C155.108231,115.994507 154.895218,115.992538 154.367615,116.046005 
	C153.567780,111.941086 153.082535,107.780739 152.096375,103.048981 
	C147.839371,96.522667 142.202942,95.928314 135.981857,97.000671 
	C135.933990,94.955383 135.886124,92.910095 136.291779,90.424683 
	C139.135910,90.145447 141.766266,89.730026 143.861252,90.601540 
	C147.047577,91.927055 149.862762,94.144737 152.909241,96.320282 
	C153.728851,97.427338 154.474777,98.197617 155.220718,98.967903 
	C155.269180,99.423729 155.317657,99.879562 155.443329,100.670334 
	C155.460724,105.691612 155.400909,110.377945 155.331161,115.530380 
z"/>
<path fill="#4F4F50" opacity="1.000000" stroke="none" 
	d="
M155.463989,98.652199 
	C154.474777,98.197617 153.728851,97.427338 152.961639,95.883507 
	C152.913406,93.057808 152.886444,91.005646 152.887115,88.725266 
	C152.914734,88.497040 152.827103,88.045685 152.827103,88.045685 
	C152.861526,87.867897 152.895950,87.690117 153.336044,87.250961 
	C154.237488,86.997726 154.733246,87.005852 155.229004,87.013977 
	C155.388428,90.788147 155.547852,94.562325 155.463989,98.652199 
z"/>
<path fill="#BABABA" opacity="1.000000" stroke="none" 
	d="
M155.197449,86.641518 
	C154.733246,87.005852 154.237488,86.997726 153.370026,86.981468 
	C153.391388,86.037354 153.784439,85.101364 154.502655,84.111237 
	C154.940521,84.794411 155.053192,85.531738 155.197449,86.641518 
z"/>
<path fill="#16161B" opacity="1.000000" stroke="none" 
	d="
M164.479309,93.465332 
	C164.520706,93.443413 164.437927,93.487244 164.479309,93.465332 
z"/>
<path fill="#A3A3A2" opacity="1.000000" stroke="none" 
	d="
M97.623489,75.002884 
	C98.104607,77.378838 98.163513,79.753593 97.754242,82.516541 
	C93.612755,83.564644 89.912567,84.106544 86.277405,84.934059 
	C84.450134,85.350021 82.741035,86.285088 80.981934,86.590439 
	C80.992485,85.143372 80.999596,84.091270 81.006706,83.039169 
	C81.041710,82.269112 81.076714,81.499062 81.166496,80.346802 
	C83.914436,78.928185 86.564629,77.754234 89.313255,76.895340 
	C91.888390,76.090668 94.567772,75.619576 97.623489,75.002884 
z"/>
<path fill="#0C0C0F" opacity="1.000000" stroke="none" 
	d="
M73.000305,88.000717 
	C72.634117,87.401855 72.267929,86.802994 71.901741,86.204132 
	C73.696968,85.164307 75.492203,84.124481 77.636940,83.044296 
	C77.986443,83.003929 78.350517,83.132744 78.480408,83.511703 
	C78.663521,85.937538 78.716751,87.984413 78.555054,90.104256 
	C78.156975,90.423958 78.022957,90.695000 77.583870,90.984177 
	C75.819878,89.985573 74.410095,88.993141 73.000305,88.000717 
z"/>
<path fill="#B1B1B2" opacity="1.000000" stroke="none" 
	d="
M78.769981,90.031296 
	C78.716751,87.984413 78.663521,85.937538 78.665031,83.455124 
	C79.228020,83.033005 79.736275,83.046425 80.625610,83.049507 
	C80.999596,84.091270 80.992485,85.143372 80.751663,86.776947 
	C80.360687,87.917091 80.203407,88.475761 80.026054,89.282791 
	C80.005981,89.531143 79.997963,90.029404 79.690918,90.000870 
	C79.179245,89.991997 78.974609,90.011650 78.769981,90.031296 
z"/>
<path fill="#389EE2" opacity="1.000000" stroke="none" 
	d="
M110.959778,51.953331 
	C111.043991,52.048389 111.161087,52.188065 111.278183,52.327744 
	C111.198311,52.279476 111.118446,52.231209 110.971359,52.056179 
	C110.904152,51.929413 110.992668,51.997952 110.959778,51.953331 
z"/>
<path fill="#9B9B9B" opacity="1.000000" stroke="none" 
	d="
M152.859482,88.953491 
	C152.886444,91.005646 152.913406,93.057808 152.887970,95.546738 
	C149.862762,94.144737 147.047577,91.927055 143.861252,90.601540 
	C141.766266,89.730026 139.135910,90.145447 136.367981,89.992050 
	C135.932999,87.954529 135.875336,85.909515 136.275146,83.425140 
	C139.514542,83.337318 142.325623,83.542618 145.068771,84.088951 
	C147.085876,84.490669 149.014084,85.338692 150.981903,85.987831 
	C151.170227,86.546082 151.358536,87.104332 151.878372,88.036758 
	C152.373932,88.654625 152.590454,88.835480 152.859482,88.953491 
z"/>
<path fill="#A3A3A2" opacity="1.000000" stroke="none" 
	d="
M150.986267,85.551208 
	C149.014084,85.338692 147.085876,84.490669 145.068771,84.088951 
	C142.325623,83.542618 139.514542,83.337318 136.356232,82.993240 
	C135.916794,80.957779 135.853714,78.914856 135.863373,76.439316 
	C138.695221,76.371597 141.481247,76.601662 144.204559,77.145638 
	C146.243134,77.552834 148.200897,78.364510 150.585190,78.992325 
	C150.980698,81.030563 150.985672,83.072571 150.986267,85.551208 
z"/>
<path fill="#A3A3A2" opacity="1.000000" stroke="none" 
	d="
M152.887115,88.725266 
	C152.590454,88.835480 152.373932,88.654625 152.117310,88.218475 
	C152.024719,88.026031 152.426575,88.029137 152.626831,88.037415 
	C152.827103,88.045685 152.914734,88.497040 152.887115,88.725266 
z"/>
<path fill="#8E8E8E" opacity="1.000000" stroke="none" 
	d="
M135.912598,97.434021 
	C142.202942,95.928314 147.839371,96.522667 151.806244,102.759827 
	C151.753799,103.526901 151.490555,104.011719 150.700714,104.746231 
	C145.457809,104.662888 140.741501,104.329857 136.025177,103.996826 
	C135.964569,101.953674 135.903946,99.910515 135.912598,97.434021 
z"/>
<path fill="#8A8A8A" opacity="1.000000" stroke="none" 
	d="
M135.956299,104.422035 
	C140.741501,104.329857 145.457809,104.662888 150.585068,104.997498 
	C150.991898,106.709511 150.987793,108.419945 150.972717,110.556885 
	C148.460876,110.342522 145.987640,109.372673 143.450836,109.159607 
	C141.219894,108.972244 138.917801,109.631882 136.287598,109.963882 
	C135.914490,108.289284 135.900955,106.568268 135.956299,104.422035 
z"/>
<path fill="#0C0C0F" opacity="1.000000" stroke="none" 
	d="
M71.210693,96.240173 
	C70.998093,95.253815 70.999878,94.505798 71.437279,93.382523 
	C73.893509,93.008339 75.914116,93.009422 77.967712,93.411194 
	C77.996140,94.885094 77.991577,95.958305 77.987015,97.031517 
	C75.799706,96.847176 73.612396,96.662842 71.210693,96.240173 
z"/>
<path fill="#4F4F50" opacity="1.000000" stroke="none" 
	d="
M78.148987,97.076355 
	C77.991577,95.958305 77.996140,94.885094 78.006073,93.075241 
	C77.986992,91.889183 77.962540,91.439766 77.938080,90.990341 
	C78.022957,90.695000 78.156975,90.423958 78.555054,90.104256 
	C78.974609,90.011650 79.179245,89.991997 79.690514,90.422554 
	C79.950569,92.555420 79.903984,94.238083 79.857399,95.920738 
	C79.571465,96.182877 79.285522,96.445015 78.820953,96.942413 
	C78.642311,97.177681 78.310966,97.121185 78.148987,97.076355 
z"/>
<path fill="#8A8A8A" opacity="1.000000" stroke="none" 
	d="
M82.013290,103.318596 
	C82.005051,102.894836 81.992714,102.449562 82.204300,102.108330 
	C82.675446,101.565170 82.865944,101.311401 83.367325,100.954605 
	C88.514244,99.937309 93.281227,98.971191 98.048218,98.005074 
	C98.095177,100.382256 98.142136,102.759445 98.146179,105.581467 
	C93.035324,106.675293 87.967384,107.324295 82.492966,107.952644 
	C82.064835,106.535446 82.043182,105.138901 82.013290,103.318596 
z"/>
<path fill="#919191" opacity="1.000000" stroke="none" 
	d="
M98.122116,97.665825 
	C93.281227,98.971191 88.514244,99.937309 83.365852,100.583313 
	C82.977959,99.522194 82.971458,98.781181 82.974594,97.620117 
	C82.989983,95.799431 82.995743,94.398796 83.386757,92.990662 
	C88.475899,91.920357 92.842682,88.420769 98.051483,91.007729 
	C98.161552,92.391129 98.271614,93.774521 98.449463,95.569420 
	C98.410172,96.429474 98.303093,96.878021 98.122116,97.665825 
z"/>
<path fill="#9B9B9B" opacity="1.000000" stroke="none" 
	d="
M98.123840,90.567368 
	C92.842682,88.420769 88.475899,91.920357 83.384331,92.606590 
	C82.013145,91.164825 81.029633,90.099632 80.046127,89.034431 
	C80.203407,88.475761 80.360687,87.917091 80.748230,87.171921 
	C82.741035,86.285088 84.450134,85.350021 86.277405,84.934059 
	C89.912567,84.106544 93.612755,83.564644 97.670212,82.955139 
	C98.101624,85.379364 98.148911,87.753189 98.123840,90.567368 
z"/>
<path fill="#8A8A8A" opacity="1.000000" stroke="none" 
	d="
M80.026054,89.282791 
	C81.029633,90.099632 82.013145,91.164825 82.999077,92.614098 
	C82.995743,94.398796 82.989983,95.799431 82.743958,97.613510 
	C82.503700,98.026955 82.041580,98.038651 82.041580,98.038651 
	C81.536560,97.375626 81.031548,96.712601 80.191971,95.985153 
	C79.903984,94.238083 79.950569,92.555420 79.997559,90.451080 
	C79.997963,90.029404 80.005981,89.531143 80.026054,89.282791 
z"/>
<path fill="#7C7C7B" opacity="1.000000" stroke="none" 
	d="
M82.033569,98.434357 
	C82.041580,98.038651 82.503700,98.026955 82.734329,98.033569 
	C82.971458,98.781181 82.977959,99.522194 82.985916,100.634491 
	C82.865944,101.311401 82.675446,101.565170 82.206657,101.885620 
	C82.006805,100.946106 82.016182,99.888084 82.033569,98.434357 
z"/>
<path fill="#121317" opacity="1.000000" stroke="none" 
	d="
M77.583870,90.984177 
	C77.962540,91.439766 77.986992,91.889183 77.973091,92.674561 
	C75.914116,93.009422 73.893509,93.008339 71.438599,93.008537 
	C71.668724,91.582809 72.333153,90.155800 72.998940,88.364754 
	C74.410095,88.993141 75.819878,89.985573 77.583870,90.984177 
z"/>
</svg>