<svg xmlns="http://www.w3.org/2000/svg" viewBox="0 0 500 100">
  <!-- "O" -->
  <path fill="#000000" d="M 40,30 A 20,20 0 0 1 80,30 A 20,20 0 0 1 80,70 A 20,20 0 0 1 40,70 A 20,20 0 0 1 40,30 Z" />
  <!-- "p" -->
  <path fill="#000000" d="M 90,30 L 110,30 A 20,20 0 0 1 130,50 L 130,75 A 5,5 0 0 1 125,80 L 115,80 A 5,5 0 0 1 110,75 L 110,50 L 90,50 Z" />
  <!-- "e" -->
  <path fill="#000000" d="M 140,50 A 20,20 0 0 1 160,30 L 180,30 A 5,5 0 0 1 185,35 L 185,45
                           A 5,5 0 0 1 180,50 L 147,50 A 5,5 0 0 0 142,55 L 142,60 A 5,5 0 0 0 147,65 L 165,65
                           A 5,5 0 0 1 170,70 L 170,80 A 5,5 0 0 1 165,85 L 145,85 A 20,20 0 0 1 125,65 L 125,55
                           A 20,20 0 0 1 140,50 Z"/>
  <!-- "n" -->
  <path fill="#000000" d="M 200,30 L 210,30 A 5,5 0 0 1 215,35 L 215,55 A 20,20 0 0 1 235,75 L 235,35
                           A 5,5 0 0 1 240,30 L 250,30 A 5,5 0 0 1 255,35 L 255,65 A 5,5 0 0 1 250,70 L 240,70
                           A 40,40 0 0 1 200,30 Z"/>
  <!-- "F" -->
  <path fill="#00E5BE" d="M 280,30 L 320,30 A 5,5 0 0 1 325,35 L 325,45 A 5,5 0 0 1 320,50
                           L 295,50 L 295,60 L 315,60 A 5,5 0 0 1 320,65 L 320,75 A 5,5 0 0 1 315,80
                           L 295,80 A 15,15 0 0 1 280,65 Z" />
  <!-- "r" -->
  <path fill="#00E5BE" d="M 340,45 A 5,5 0 0 1 345,40 L 355,40 A 5,5 0 0 1 360,45 L 360,55
                           A 5,5 0 0 1 355,60 L 345,60 A 5,5 0 0 1 340,55 Z" />
  <!-- "a" -->
  <path fill="#00E5BE" d="M 370,50 A 20,20 0 0 1 390,30 A 20,20 0 0 1 410,50 A 5,5 0 0 1 405,55
                           L 395,55 A 5,5 0 0 0 390,60 L 390,70 A 5,5 0 0 0 395,75 L 400,75 A 5,5 0 0 1 405,80
                           L 405,85 A 5,5 0 0 1 400,90 L 385,90 A 15,15 0 0 1 370,75 Z"/>
  <!-- "m" -->
  <path fill="#00E5BE" d="M 420,40 L 430,40 A 5,5 0 0 1 435,45 L 435,60 A 20,20 0 0 0 455,80
                           L 455,45 A 5,5 0 0 1 460,40 L 470,40 A 5,5 0 0 1 475,45 L 475,65 A 5,5 0 0 1 470,70
                           L 460,70 A 25,25 0 0 1 440,50 L 440,65 A 5,5 0 0 1 435,70 L 425,70 A 5,5 0 0 1 420,65 Z"/>
  <!-- "e" -->
  <path fill="#00E5BE" d="M 490,60 A 20,20 0 0 1 510,40 L 530,40 A 5,5 0 0 1 535,45 L 535,55
                           A 5,5 0 0 1 530,60 L 497,60 A 5,5 0 0 0 492,65 L 492,70 A 5,5 0 0 0 497,75 L 515,75
                           A 5,5 0 0 1 520,80 L 520,90 A 5,5 0 0 1 515,95 L 495,95 A 20,20 0 0 1 475,75 L 475,65
                           A 20,20 0 0 1 490,60 Z"/>
</svg>