<svg version="1.1" viewBox="0.0 0.0 2000.0 2000.0" fill="none" stroke="none" stroke-linecap="square" stroke-miterlimit="10" xmlns:xlink="http://www.w3.org/1999/xlink" xmlns="http://www.w3.org/2000/svg"><clipPath id="g2d6a31c6e03_0_0.0"><path d="m0 0l2000.0 0l0 2000.0l-2000.0 0l0 -2000.0z" clip-rule="nonzero"/></clipPath><g clip-path="url(#g2d6a31c6e03_0_0.0)"><path fill="#000000" fill-opacity="0.0" d="m0 0l2000.0 0l0 2000.0l-2000.0 0z" fill-rule="evenodd"/><path fill="#000000" fill-opacity="0.0" d="m0 0l2000.0 0l0 2000.0l-2000.0 0z" fill-rule="evenodd"/><path fill="#ffffff" d="m164.6427 1004.1531q0 -28.46875 8.46875 -50.234375q8.484375 -21.765625 23.046875 -36.3125q14.5625 -14.5625 33.921875 -21.921875q19.359375 -7.359375 41.125 -7.359375q21.4375 0 40.46875 7.359375q19.046875 7.359375 33.4375 21.921875q14.40625 14.546875 22.890625 36.3125q8.484375 21.765625 8.484375 50.234375q0 28.484375 -8.484375 50.25q-8.484375 21.75 -22.890625 36.3125q-14.390625 14.5625 -33.4375 21.921875q-19.03125 7.359375 -40.46875 7.359375q-21.765625 0 -41.125 -7.359375q-19.359375 -7.359375 -33.921875 -21.921875q-14.5625 -14.5625 -23.046875 -36.3125q-8.46875 -21.765625 -8.46875 -50.25zm32.640625 0q0 20.171875 5.109375 36.65625q5.125 16.46875 14.5625 28.0q9.4375 11.515625 23.03125 17.75q13.609375 6.234375 30.578125 6.234375q16.953125 0 30.390625 -6.234375q13.4375 -6.234375 22.875 -17.75q9.453125 -11.53125 14.5625 -28.0q5.125 -16.484375 5.125 -36.65625q0 -20.15625 -5.125 -36.625q-5.109375 -16.484375 -14.5625 -28.0q-9.4375 -11.53125 -22.875 -17.765625q-13.4375 -6.25 -30.390625 -6.25q-16.96875 0 -30.578125 6.25q-13.59375 6.234375 -23.03125 17.765625q-9.4375 11.515625 -14.5625 28.0q-5.109375 16.46875 -5.109375 36.625zm338.88184 28.171875q0 -29.125 -14.40625 -44.796875q-14.40625 -15.6875 -38.40625 -15.6875q-13.4375 0 -20.953125 0.96875q-7.515625 0.953125 -12.0 2.234375l0 104.953125q5.4375 4.484375 15.671875 8.640625q10.25 4.15625 22.40625 4.15625q12.796875 0 21.921875 -4.640625q9.125 -4.640625 14.875 -12.796875q5.765625 -8.15625 8.328125 -19.1875q2.5625 -11.046875 2.5625 -23.84375zm31.03125 0q0 18.875 -4.96875 34.875q-4.953125 16.0 -14.546875 27.53125q-9.59375 11.515625 -23.515625 17.921875q-13.921875 6.390625 -31.84375 6.390625q-14.40625 0 -25.453125 -3.84375q-11.03125 -3.84375 -16.46875 -7.359375l0 66.5625l-29.765625 0l0 -220.48438q10.5625 -2.5625 26.40625 -5.59375q15.84375 -3.046875 36.640625 -3.046875q19.203125 0 34.5625 6.078125q15.359375 6.078125 26.234375 17.28125q10.875 11.203125 16.796875 27.359375q5.921875 16.15625 5.921875 36.328125zm32.63623 0q0 -22.078125 6.40625 -38.5625q6.40625 -16.484375 16.953125 -27.359375q10.5625 -10.890625 24.328125 -16.328125q13.765625 -5.4375 28.15625 -5.4375q33.609375 0 51.515625 20.96875q17.921875 20.953125 17.921875 63.828125q0 1.921875 0 4.96875q0 3.03125 -0.3125 5.59375l-113.921875 0q1.921875 25.921875 15.03125 39.359375q13.125 13.4375 40.96875 13.4375q15.6875 0 26.40625 -2.71875q10.71875 -2.71875 16.15625 -5.28125l4.15625 24.96875q-5.4375 2.875 -19.046875 6.078125q-13.59375 3.203125 -30.875 3.203125q-21.75 0 -37.59375 -6.5625q-15.84375 -6.5625 -26.09375 -18.078125q-10.234375 -11.515625 -15.203125 -27.359375q-4.953125 -15.84375 -4.953125 -34.71875zm114.25 -16.328125q0.3125 -20.15625 -10.09375 -33.109375q-10.390625 -12.96875 -28.625 -12.96875q-10.25 0 -18.09375 4.0q-7.828125 4.0 -13.265625 10.40625q-5.4375 6.390625 -8.484375 14.71875q-3.046875 8.3125 -4.0 16.953125l82.5625 0zm73.911194 -62.390625q10.25 -2.5625 27.203125 -5.4375q16.96875 -2.890625 39.046875 -2.890625q19.84375 0 32.953125 5.609375q13.125 5.59375 20.953125 15.671875q7.84375 10.078125 11.046875 24.15625q3.203125 14.078125 3.203125 31.046875l0 93.4375l-29.765625 0l0 -87.046875q0 -15.359375 -2.078125 -26.234375q-2.078125 -10.875 -6.875 -17.59375q-4.796875 -6.71875 -12.796875 -9.765625q-8.0 -3.046875 -19.84375 -3.046875q-4.796875 0 -9.921875 0.328125q-5.125 0.3125 -9.765625 0.796875q-4.640625 0.484375 -8.328125 1.125q-3.671875 0.640625 -5.265625 0.953125l0 140.48438l-29.765625 0l0 -161.59375z" fill-rule="nonzero"/><path fill="#00cfc1" d="m973.5957 1115.2l0 -221.76562l133.76562 0l0 26.5625l-102.71875 0l0 66.890625l91.203125 0l0 26.234375l-91.203125 0l0 102.078125l-31.046875 0zm222.41125 -169.92188q3.828125 0 8.78125 0.484375q4.96875 0.484375 9.765625 1.28125q4.8125 0.796875 8.8125 1.59375q4.0 0.796875 5.90625 1.4375l-5.109375 25.921875q-3.515625 -1.28125 -11.6875 -3.03125q-8.15625 -1.765625 -20.953125 -1.765625q-8.328125 0 -16.484375 1.765625q-8.15625 1.75 -10.71875 2.390625l0 139.84375l-29.765625 0l0 -159.35938q10.5625 -3.84375 26.234375 -7.203125q15.6875 -3.359375 35.21875 -3.359375zm118.3949 148.48438q10.5625 0 18.71875 -0.484375q8.15625 -0.484375 13.59375 -1.765625l0 -49.59375q-3.1875 -1.59375 -10.390625 -2.71875q-7.203125 -1.125 -17.4375 -1.125q-6.71875 0 -14.25 0.96875q-7.515625 0.953125 -13.765625 4.0q-6.234375 3.03125 -10.390625 8.3125q-4.15625 5.28125 -4.15625 13.921875q0 16.0 10.234375 22.25q10.234375 6.234375 27.84375 6.234375zm-2.5625 -149.125q17.921875 0 30.234375 4.640625q12.328125 4.640625 19.84375 13.125q7.515625 8.484375 10.71875 20.171875q3.203125 11.671875 3.203125 25.75l0 104.0q-3.84375 0.640625 -10.71875 1.765625q-6.875 1.109375 -15.515625 2.0625q-8.640625 0.96875 -18.734375 1.765625q-10.078125 0.796875 -19.984375 0.796875q-14.09375 0 -25.9375 -2.875q-11.828125 -2.875 -20.46875 -9.109375q-8.640625 -6.25 -13.4375 -16.484375q-4.796875 -10.25 -4.796875 -24.640625q0 -13.765625 5.59375 -23.6875q5.59375 -9.921875 15.1875 -16.0q9.609375 -6.078125 22.40625 -8.953125q12.8125 -2.890625 26.890625 -2.890625q4.46875 0 9.265625 0.484375q4.8125 0.484375 9.125 1.28125q4.328125 0.796875 7.515625 1.4375q3.203125 0.640625 4.484375 0.96875l0 -8.328125q0 -7.359375 -1.59375 -14.5625q-1.59375 -7.203125 -5.765625 -12.796875q-4.15625 -5.59375 -11.359375 -8.953125q-7.203125 -3.359375 -18.71875 -3.359375q-14.71875 0 -25.765625 2.078125q-11.03125 2.078125 -16.46875 4.3125l-3.515625 -24.640625q5.75 -2.5625 19.1875 -4.953125q13.453125 -2.40625 29.125 -2.40625zm113.274414 8.96875q10.25 -2.5625 27.046875 -5.4375q16.796875 -2.890625 38.875 -2.890625q16.0 0 26.875 4.328125q10.890625 4.3125 18.25 12.640625q2.234375 -1.609375 7.03125 -4.484375q4.8125 -2.875 11.84375 -5.59375q7.046875 -2.734375 15.6875 -4.8125q8.640625 -2.078125 18.5625 -2.078125q19.1875 0 31.34375 5.609375q12.171875 5.59375 19.046875 15.84375q6.890625 10.234375 9.28125 24.3125q2.40625 14.078125 2.40625 30.71875l0 93.4375l-29.765625 0l0 -87.046875q0 -14.71875 -1.4375 -25.265625q-1.4375 -10.5625 -5.4375 -17.59375q-4.0 -7.046875 -10.890625 -10.40625q-6.875 -3.375 -17.75 -3.375q-15.046875 0 -24.8125 4.0q-9.75 4.0 -13.265625 7.203125q2.5625 8.328125 3.828125 18.25q1.28125 9.921875 1.28125 20.796875l0 93.4375l-29.75 0l0 -87.046875q0 -14.71875 -1.609375 -25.265625q-1.59375 -10.5625 -5.59375 -17.59375q-4.0 -7.046875 -10.890625 -10.40625q-6.875 -3.375 -17.4375 -3.375q-4.46875 0 -9.59375 0.328125q-5.125 0.3125 -9.765625 0.796875q-4.640625 0.484375 -8.484375 1.125q-3.828125 0.640625 -5.109375 0.953125l0 140.48438l-29.765625 0l0 -161.59375zm266.23865 78.71875q0 -22.078125 6.40625 -38.5625q6.40625 -16.484375 16.953125 -27.359375q10.5625 -10.890625 24.328125 -16.328125q13.765625 -5.4375 28.15625 -5.4375q33.609375 0 51.515625 20.96875q17.921875 20.953125 17.921875 63.828125q0 1.921875 0 4.96875q0 3.03125 -0.3125 5.59375l-113.921875 0q1.921875 25.921875 15.03125 39.359375q13.125 13.4375 40.96875 13.4375q15.6875 0 26.40625 -2.71875q10.71875 -2.71875 16.15625 -5.28125l4.15625 24.96875q-5.4375 2.875 -19.046875 6.078125q-13.59375 3.203125 -30.875 3.203125q-21.75 0 -37.59375 -6.5625q-15.84375 -6.5625 -26.09375 -18.078125q-10.234375 -11.515625 -15.203125 -27.359375q-4.953125 -15.84375 -4.953125 -34.71875zm114.25 -16.328125q0.3125 -20.15625 -10.09375 -33.109375q-10.390625 -12.96875 -28.625 -12.96875q-10.25 0 -18.09375 4.0q-7.828125 4.0 -13.265625 10.40625q-5.4375 6.390625 -8.484375 14.71875q-3.046875 8.3125 -4.0 16.953125l82.5625 0z" fill-rule="nonzero"/></g></svg>