<?xml version="1.0" encoding="UTF-8"?>
<svg width="800" height="327" viewBox="0 0 800 327" fill="none" xmlns="http://www.w3.org/2000/svg">
<g transform="translate(236,0) scale(0.85)">
<path d="M0 1635 l0 -1635 1635 0 1635 0 0 1635 0 1635 -1635 0 -1635 0 0 -1635z" fill="#192147"/>
<path d="M1515 2913 c-27 -8 -72 -23 -100 -33 -161 -57 -378 -109 -563 -136 -54 -7 -119 -18 -147 -24 -27 -5 -106 -19 -175 -31 -69 -12 -130 -26 -136 -30 -41 -32 -13 -777 36 -984 50 -208 70 -286 94 -365 15 -47 31 -99 35 -117 23 -87 158 -303 266 -426 124 -141 214 -220 391 -339 106 -73 344 -198 375 -198 16 0 232 106 290 142 71 46 194 130 199 137 3 3 39 34 80 68 88 71 222 210 265 274 16 24 43 62 60 84 51 67 156 306 191 435 47 177 99 480 117 680 17 203 15 587 -4 604 -8 8 -72 23 -144 35 -71 12 -159 28 -195 36 -36 8 -99 19 -140 25 -181 23 -472 95 -545 134 -16 9 -40 16 -51 16 -12 0 -41 7 -64 15 -51 18 -70 18 -135 -2z" fill="#63C740"/>
<path d="M885 2913 c5 -8 10 -72 10 -142 0 -116 -2 -128 -19 -138 -12 -6 -107 -10 -240 -10 -208 0 -221 -1 -231 -19 -6 -13 -10 -220 -10 -603 0 -441 -3 -587 -12 -596 -15 -15 -285 -17 -308 -2 -13 8 -15 87 -17 601 -2 429 -6 595 -14 605 -9 11 -61 14 -267 14 -224 0 -258 2 -274 17 -15 14 -18 32 -18 135 0 105 2 120 20 138 20 20 28 21 696 18 587 -3 676 -5 684 -18z" fill="white"/>
</g>
</svg>
